<?xml version="1.0" encoding="UTF-8" standalone="no"?>
<svg
   id="svg8"
   version="1.1"
   viewBox="0 0 32 32"
   height="32"
   width="32"
   xmlns="http://www.w3.org/2000/svg"
   xmlns:svg="http://www.w3.org/2000/svg"
   xmlns:rdf="http://www.w3.org/1999/02/22-rdf-syntax-ns#"
   xmlns:cc="http://creativecommons.org/ns#"
   xmlns:dc="http://purl.org/dc/elements/1.1/">
  <defs
     id="defs2" />
  <metadata
     id="metadata5">
    <rdf:RDF>
      <cc:Work
         rdf:about="">
        <dc:format>image/svg+xml</dc:format>
        <dc:type
           rdf:resource="http://purl.org/dc/dcmitype/StillImage" />
      </cc:Work>
    </rdf:RDF>
  </metadata>
  <g
     id="layer1">
    <path
       style="fill:#7137c8;fill-opacity:1;stroke-width:0.191309"
       d="M 6.3335314,31.246739 C 4.9024983,31.059778 3.6385323,30.079969 3.1193041,28.75534 2.8757033,28.133722 2.8447156,27.829538 2.8447156,26.059164 c 0,-0.905977 0.013172,-1.647252 0.028425,-1.647252 0.015942,0 0.1021133,0.05612 0.1918864,0.124571 0.6690358,0.510219 1.5583793,0.593267 2.3196151,0.216501 l 0.3383652,-0.167417 0.015942,1.495023 0.016639,1.494944 0.1342788,0.227725 c 0.1570859,0.266615 0.3540316,0.424192 0.6295905,0.503981 0.1451626,0.04228 3.0754422,0.05341 11.0086914,0.04228 l 10.810705,-0.01521 0.246374,-0.1523 c 0.17497,-0.108135 0.283808,-0.22509 0.37566,-0.403525 l 0.129287,-0.251297 V 15.985017 4.4429551 L 28.948202,4.2013637 C 28.870142,4.0684724 28.712365,3.8976612 28.597567,3.8217516 L 28.388974,3.6836612 H 17.422847 6.4568575 L 6.2481959,3.8217516 C 6.133467,3.8976612 5.9756877,4.0684724 5.8975599,4.2013637 L 5.7555874,4.4429551 5.738949,5.7352032 5.7223105,7.0275908 5.3622472,6.8488071 c -0.349596,-0.1735149 -0.377256,-0.178714 -0.9453571,-0.178714 -0.534757,0 -0.6113586,0.012472 -0.8869173,0.1411419 -0.1658206,0.077778 -0.3750372,0.1972917 -0.4648101,0.2658535 -0.089847,0.068627 -0.1762192,0.1245034 -0.1919561,0.1245034 -0.015942,0 -0.028424,-0.6501806 -0.028424,-1.4447606 0,-1.1032744 0.018721,-1.5338384 0.077851,-1.8218051 C 3.1940327,2.6214246 4.0813665,1.5577337 5.3447078,1.0317807 6.1253532,0.70693413 5.5135781,0.72253143 17.422567,0.72253143 c 11.90892,0 11.297282,-0.015938 12.077859,0.30924927 1.011075,0.420929 1.793524,1.1944335 2.19622,2.170987 0.323392,0.7841807 0.303843,-0.044371 0.302802,12.8167023 0,12.804018 0.01872,11.976091 -0.299405,12.769844 -0.465018,1.161575 -1.446146,2.016667 -2.736731,2.385331 -0.315627,0.09007 -0.775932,0.09428 -11.338252,0.101213 -6.055152,0.0072 -11.136316,-0.009 -11.2915295,-0.02978 z M 3.5638717,21.800933 C 2.8574018,21.448843 2.5410115,20.550972 2.8854773,19.875767 2.9423273,19.7652 3.411639,19.163197 3.9293429,18.538111 L 4.870609,17.401492 2.98454,17.373772 C 1.3100448,17.349513 1.0760795,17.336332 0.89923661,17.255227 0.30825901,16.984313 -0.00882469,16.488169 1.8711392e-4,15.848803 0.00779711,15.327565 0.30576321,14.856723 0.79012201,14.601059 L 1.0478647,14.465118 3.009219,14.449868 c 1.0788038,-0.0083 1.961423,-0.02564 1.961423,-0.03882 0,-0.01317 -0.4201656,-0.527824 -0.9338492,-1.143481 C 3.5231099,12.651976 3.0673117,12.073267 3.0238461,11.981554 2.7365714,11.376225 2.8770892,10.688264 3.3781555,10.247231 3.6853258,9.9768032 4.0284047,9.8635992 4.4403913,9.8965962 c 0.6299372,0.05061 0.6182223,0.03952 2.8657415,2.7447728 2.230188,2.684531 2.251748,2.716698 2.205925,3.291384 -0.01317,0.167067 -0.06724,0.394724 -0.118889,0.50585 -0.08928,0.190637 -4.0100548,4.957213 -4.2394449,5.154022 -0.4162839,0.357221 -1.1081963,0.447548 -1.5898522,0.207484 z"
       id="path28" />
  </g>
</svg>
