<?xml version="1.0" encoding="UTF-8" standalone="no"?>
<svg
   sodipodi:docname="szablon eksportu.svg"
   inkscape:version="1.4 (86a8ad7, 2024-10-11)"
   id="svg8"
   version="1.1"
   viewBox="0 0 32 32"
   height="32"
   width="32"
   xmlns:inkscape="http://www.inkscape.org/namespaces/inkscape"
   xmlns:sodipodi="http://sodipodi.sourceforge.net/DTD/sodipodi-0.dtd"
   xmlns="http://www.w3.org/2000/svg"
   xmlns:svg="http://www.w3.org/2000/svg"
   xmlns:rdf="http://www.w3.org/1999/02/22-rdf-syntax-ns#"
   xmlns:cc="http://creativecommons.org/ns#"
   xmlns:dc="http://purl.org/dc/elements/1.1/">
  <defs
     id="defs2" />
  <sodipodi:namedview
     inkscape:window-maximized="1"
     inkscape:window-y="-11"
     inkscape:window-x="214"
     inkscape:window-height="2126"
     inkscape:window-width="3840"
     units="px"
     showgrid="false"
     inkscape:document-rotation="0"
     inkscape:current-layer="layer1"
     inkscape:document-units="px"
     inkscape:cy="11.790374"
     inkscape:cx="9.5964491"
     inkscape:zoom="31.678384"
     inkscape:pageshadow="2"
     inkscape:pageopacity="0.0"
     borderopacity="1.0"
     bordercolor="#666666"
     pagecolor="#ffffff"
     id="base"
     inkscape:pagecheckerboard="0"
     showguides="true"
     inkscape:guide-bbox="true"
     inkscape:showpageshadow="2"
     inkscape:deskcolor="#d1d1d1">
    <sodipodi:guide
       position="12.410714,19.758929"
       orientation="1,0"
       id="guide1048"
       inkscape:locked="false" />
  </sodipodi:namedview>
  <metadata
     id="metadata5">
    <rdf:RDF>
      <cc:Work
         rdf:about="">
        <dc:format>image/svg+xml</dc:format>
        <dc:type
           rdf:resource="http://purl.org/dc/dcmitype/StillImage" />
      </cc:Work>
    </rdf:RDF>
  </metadata>
  <g
     id="layer1"
     inkscape:groupmode="layer"
     inkscape:label="Warstwa 1">
    <path
       style="fill:#7137c8;fill-opacity:1;stroke-width:0.0983031"
       d="m 18.713074,31.989479 c -0.301586,-0.0708 -0.496959,-0.276999 -0.812411,-0.857197 -0.277466,-0.510386 -0.467745,-0.769572 -0.830344,-1.131064 -0.377866,-0.376732 -0.636305,-0.563932 -1.100651,-0.797291 -0.446145,-0.224199 -0.553345,-0.242359 -1.424209,-0.241213 -1.00597,0 -1.19565,0.04693 -1.830661,0.440466 -0.696679,0.431772 -1.176944,0.979357 -1.628663,1.856995 -0.157732,0.306492 -0.357225,0.529105 -0.525505,0.586438 -0.185186,0.06307 -0.431532,0.05173 -0.7702114,-0.0356 -1.0711565,-0.276159 -3.2376835,-1.302116 -3.5500955,-1.681129 -0.09893,-0.119866 -0.13488,-0.247652 -0.13488,-0.478092 0,-0.213932 0.0332,-0.360505 0.196,-0.862131 0.165759,-0.510985 0.203479,-0.759344 0.185226,-1.219356 -0.0276,-0.697385 -0.237106,-1.357703 -0.612412,-1.931195 l -0.131866,-0.201572 h 0.611585 0.611558 l 0.265733,0.178079 c 1.300529,0.871771 2.9050979,1.517076 4.5052529,1.811915 1.20281,0.221626 2.603353,0.254399 3.837323,0.08973 3.672496,-0.489972 6.952994,-2.671619 8.775842,-5.836344 2.062007,-3.57987 2.040967,-8.002057 -0.05493,-11.543154 C 23.65489,9.0566204 22.857999,8.0983824 21.893201,7.2498784 19.96382,5.55303 17.471187,4.5161396 14.840581,4.3161002 14.312263,4.2759672 13.056626,4.2975672 12.581854,4.3551662 10.705979,4.5826856 9.0031311,5.1774972 7.4674951,6.1416544 l -0.367612,0.230826 h -0.588211 c -0.323546,0 -0.588212,-0.0053 -0.588212,-0.012 0,-0.0067 0.0656,-0.1028 0.145733,-0.21456 0.16976,-0.2365585 0.370452,-0.6374108 0.463452,-0.9255033 C 6.7627641,4.5074725 6.7552181,3.7868611 6.5081151,2.886677 6.3571951,2.3366385 6.3284091,2.1551591 6.3656891,1.9886529 6.4062191,1.8076134 6.4764881,1.707707 6.6740211,1.5498141 7.0907931,1.2166684 7.8118441,0.85841598 8.8554411,0.46593708 9.7509316,0.12916468 10.216184,5.9178192e-4 10.541476,5.0819247e-6 c 0.414199,0 0.549785,0.1233329980753 0.980891,0.8972640980753 0.225306,0.40453222 0.448839,0.70257142 0.760491,1.01403722 0.566585,0.5662117 1.169677,0.8983308 1.919635,1.0571437 0.345999,0.073333 0.937304,0.079466 1.273356,0.013467 0.748491,-0.1473596 1.379743,-0.4924253 1.957221,-1.0699036 0.320266,-0.3202658 0.531159,-0.6017583 0.740825,-0.98887732 0.221599,-0.4090255 0.390705,-0.6237049 0.604011,-0.7666911 0.20572,-0.1378797 0.296813,-0.1480263 0.622452,-0.069466 0.875664,0.2113327 2.38342,0.8505576 3.326217,1.41018272 0.477772,0.2835859 0.571119,0.4067055 0.570559,0.7524379 0,0.1961994 -0.046,0.3918922 -0.206546,0.8843175 -0.167653,0.5141452 -0.192413,0.6567582 -0.191813,1.1054369 0,0.4343455 0.0476,0.730398 0.181279,1.1417968 0.439946,1.3530495 1.36153,2.1705535 2.792566,2.4770055 0.229373,0.0492 0.352132,0.0584 0.767278,0.05813 0.538745,0 0.619211,-0.012 1.189943,-0.1808 0.397412,-0.117066 0.701491,-0.143093 0.900184,-0.07707 0.246586,0.08187 0.483972,0.345225 0.739678,0.820477 0.240386,0.446812 0.733251,1.6308226 0.979131,2.3521806 0.191506,0.561919 0.243666,0.795598 0.230039,1.030971 -0.02333,0.398959 -0.202359,0.573491 -1.02445,0.997437 -0.374919,0.193333 -0.664625,0.413105 -0.990024,0.750904 -0.697745,0.724478 -1.022744,1.530223 -1.023064,2.536313 0,0.881864 0.194146,1.455623 0.724278,2.137741 0.212626,0.273639 0.583718,0.645345 0.823318,0.824811 0.09933,0.0744 0.315599,0.207853 0.480452,0.296452 0.503292,0.2706 0.731624,0.452866 0.847877,0.676905 0.0744,0.143413 0.0788,0.424146 0.01067,0.716665 -0.209386,0.906144 -1.010784,2.780885 -1.432143,3.350297 -0.130266,0.176066 -0.197853,0.234626 -0.346839,0.300533 -0.270039,0.119466 -0.657985,0.0968 -1.352409,-0.07867 -0.216186,-0.05467 -0.498386,-0.112266 -0.627159,-0.127999 -1.003757,-0.122933 -1.957327,0.161732 -2.748339,0.820384 -0.819797,0.682665 -1.289356,1.598129 -1.338716,2.610033 -0.02093,0.427505 0.01467,0.698771 0.17776,1.365529 0.107999,0.440772 0.134213,0.591332 0.135866,0.780265 0,0.209786 -0.0053,0.246546 -0.0684,0.354065 -0.03867,0.066 -0.114533,0.158653 -0.168399,0.20592 -0.416266,0.365479 -1.603196,0.922184 -2.856192,1.339623 -0.735692,0.245132 -1.020571,0.309685 -1.190317,0.269799 z M 5.6533935,22.900605 C 5.5267272,22.360607 5.3704343,21.699142 5.3061145,21.430756 l -0.116933,-0.487999 -1.9350746,0.0067 -1.9350212,0.0067 v -1.47605 -1.476009 h 1.5865689 c 0.8726242,0 1.5865689,-0.0067 1.5865689,-0.01467 0,-0.008 -0.2750259,-1.182104 -0.6111983,-2.609113 L 3.2697869,12.78562 V 10.439987 8.0943127 h 0.8648109 0.8648109 l 2.2736606,7.8609253 c 1.2505016,4.323469 2.2787793,7.875498 2.2850993,7.893391 0.0093,0.0256 -0.3683193,0.0324 -1.8315013,0.0324 H 5.8837662 Z m 6.3815275,-0.952424 v -1.934314 l 0.240586,-0.03 c 1.908328,-0.237866 3.369604,-1.262477 4.214162,-2.954899 0.195146,-0.391025 0.328132,-0.735411 0.444012,-1.149583 l 0.082,-0.293213 h 0.338159 c 0.436745,0 0.631878,-0.0332 0.868677,-0.144759 0.250026,-0.117733 0.476986,-0.347426 0.610679,-0.618025 0.210972,-0.426959 0.307399,-1.074397 0.255119,-1.712875 -0.092,-1.122464 -0.499879,-1.845875 -1.14749,-2.034928 -0.106,-0.0308 -0.259213,-0.0412 -0.614158,-0.0412 h -0.472919 l -0.08587,-0.240586 C 16.414804,9.8045731 15.855733,8.9232177 15.189575,8.3056587 l -0.226932,-0.210332 h 1.541235 c 0.903584,0 1.645756,0.012 1.793835,0.0276 2.407033,0.261385 4.112215,1.9145683 4.491988,4.3551343 0.05707,0.366426 0.07827,1.15297 0.04173,1.547556 -0.16952,1.833181 -1.121824,3.244471 -2.682246,3.975082 -0.455319,0.213133 -0.951957,0.358319 -1.546342,0.452025 -0.296573,0.0468 -0.494706,0.05493 -1.593622,0.0656 l -1.25497,0.012 v 2.676286 2.676326 h -1.859688 -1.859649 z m -1.742647,-3.459177 c 0,-0.012 -0.6741054,-2.354953 -0.8210244,-2.853965 -0.01067,-0.03587 0.034,-0.04373 0.332892,-0.05813 0.5544654,-0.0268 0.7998644,-0.116267 1.0760234,-0.392453 0.354705,-0.354692 0.530372,-0.932677 0.530252,-1.744781 0,-1.269223 -0.425853,-2.145408 -1.157116,-2.381567 -0.074,-0.02413 -0.3961994,-0.03787 -1.1152777,-0.0484 l -1.011183,-0.01507 -0.373493,-1.2875043 c -0.205439,-0.708091 -0.396425,-1.367422 -0.424465,-1.465222 l -0.05093,-0.177773 1.604688,0.012 c 1.6931027,0.012 1.8726347,0.02333 2.4112997,0.148946 0.821171,0.191453 1.576529,0.578265 2.197527,1.12517 0.873731,0.7696123 1.490609,2.0122213 1.636435,3.2963653 0.07267,0.640184 0.0548,1.310769 -0.0504,1.895194 -0.27656,1.535863 -1.183584,2.756086 -2.535407,3.410791 -0.375745,0.181986 -0.601278,0.263999 -0.99969,0.363505 -0.432679,0.108133 -1.250142,0.22128 -1.250142,0.173106 z"
       id="path96"
       sodipodi:nodetypes="ccccccccccscccccccsccccccccsscccccccccccscccccccccccccccccccscccccccccccccccccccccccssccccccscsccccccccsccccscsccscccccccccccccccccccccccccccccccc" />
  </g>
</svg>
