<?xml version="1.0" encoding="UTF-8" standalone="no"?>
<svg
   id="svg8"
   version="1.1"
   viewBox="0 0 32 32"
   height="32"
   width="32"
   xmlns="http://www.w3.org/2000/svg"
   xmlns:svg="http://www.w3.org/2000/svg"
   xmlns:rdf="http://www.w3.org/1999/02/22-rdf-syntax-ns#"
   xmlns:cc="http://creativecommons.org/ns#"
   xmlns:dc="http://purl.org/dc/elements/1.1/">
  <defs
     id="defs2" />
  <metadata
     id="metadata5">
    <rdf:RDF>
      <cc:Work
         rdf:about="">
        <dc:format>image/svg+xml</dc:format>
        <dc:type
           rdf:resource="http://purl.org/dc/dcmitype/StillImage" />
      </cc:Work>
    </rdf:RDF>
  </metadata>
  <g
     id="layer1">
    <path
       style="fill:#7137c8;fill-opacity:1;stroke-width:0.136977"
       d="m 20.339783,31.088675 c -0.337876,-0.08057 -0.669193,-0.315084 -0.855659,-0.605667 -0.192776,-0.30044 -0.22239,-0.500301 -0.22239,-1.501244 v -0.89843 h -3.261775 -3.261775 v 0.64473 c 0,0.46539 -0.01564,0.704736 -0.05613,0.860391 -0.104235,0.399957 -0.388456,0.737623 -0.772863,0.918029 l -0.203869,0.09569 H 7.4461429 3.18696 L 2.9459185,30.483482 C 2.6473574,30.336489 2.3752163,30.050125 2.2578109,29.759398 L 2.1736869,29.551139 V 18.44299 7.3348553 L 2.261097,7.117408 C 2.3807107,6.819964 2.70978,6.4908685 3.0072238,6.3712679 l 0.2174474,-0.08741 3.8105525,-0.0092 3.8105793,-0.0092 0.01354,-0.6788935 c 0.01341,-0.672742 0.0146,-0.6810623 0.127238,-0.919935 0.139212,-0.2953013 0.352124,-0.514602 0.62282,-0.6415108 l 0.204684,-0.095954 h 4.258433 4.258421 l 0.204947,0.1038405 c 0.253463,0.1284206 0.465271,0.3415959 0.599041,0.6028665 l 0.102,0.1993212 0.01814,0.9604196 0.01814,0.9604065 3.769148,0.01814 3.769148,0.01814 0.227673,0.1051549 c 0.289176,0.1335206 0.583913,0.4424132 0.702487,0.7362294 l 0.08465,0.2096526 V 18.951467 30.059602 L 29.7113,30.302444 c -0.146376,0.308959 -0.384171,0.546753 -0.693142,0.69313 l -0.242842,0.115013 -4.149678,0.0052 c -2.339986,0.0027 -4.209036,-0.0079 -4.28576,-0.02668 z M 27.742323,18.93225 V 8.8388997 h -3.18927 -3.189284 V 18.93225 29.025627 h 3.189284 3.18927 z M 10.636163,18.44299 V 8.3677529 H 7.446879 4.2575951 V 18.44299 28.518228 h 3.1892839 3.189284 z m 8.625571,3.8054 v -0.761072 h -3.243649 -3.243649 v 0.761072 0.761085 h 3.243649 3.243649 z m 0,-6.05239 V 15.326184 H 16.018085 12.774436 V 16.196 17.065802 h 3.243649 3.243649 z m 0,-5.998025 V 9.4912546 h -3.243649 -3.243649 v 0.7067204 0.706707 h 3.243649 3.243649 z M 23.01616,5.4680394 C 22.867011,5.4217713 22.674078,5.2225552 22.632082,5.0713424 22.612497,5.0006257 22.596329,4.837767 22.596198,4.7092676 V 4.4756527 l -0.117774,0.1117272 c -0.33831,0.3210512 -0.716775,0.2970365 -0.96042,-0.06099 -0.136175,-0.2000836 -0.09069,-0.538538 0.09464,-0.7036444 0.11922,-0.1062066 0.09504,-0.1302607 -0.130918,-0.1303922 C 21.114801,3.6920642 20.8932,3.479362 20.89295,3.1270403 c 0,-0.369738 0.230763,-0.5578996 0.685138,-0.5579915 l 0.268499,-6.56e-5 -0.220089,-0.2291983 C 21.288359,1.9876472 21.24957,1.6741672 21.511748,1.412029 c 0.248166,-0.2481656 0.574041,-0.221338 0.885129,0.072951 l 0.189108,0.1788555 0.02024,-0.1956671 c 0.04049,-0.3917942 0.230342,-0.58437237 0.576302,-0.58437237 0.338953,0 0.540273,0.19984707 0.566482,0.56232927 l 0.01591,0.2189983 0.192854,-0.1823913 c 0.2198,-0.2078781 0.318633,-0.2546326 0.538236,-0.2546326 0.29304,0 0.534555,0.2520827 0.534555,0.557939 0,0.2086537 -0.04166,0.2838526 -0.308091,0.5564932 L 24.501106,2.569049 h 0.283405 c 0.463589,0 0.674728,0.1571409 0.701594,0.5221863 0.02734,0.3723536 -0.198716,0.6013023 -0.593796,0.6013023 -0.126581,0 -0.230224,0.010515 -0.230224,0.02274 0,0.013145 0.05613,0.084912 0.124872,0.1609266 0.283774,0.3140978 0.184178,0.764805 -0.203265,0.9198297 -0.217816,0.087147 -0.393083,0.046794 -0.62788,-0.1444041 l -0.19267,-0.1569306 -0.01314,0.3146762 c -0.01052,0.258839 -0.0276,0.3356678 -0.097,0.4330018 -0.139344,0.1953517 -0.417149,0.2937372 -0.637041,0.2255969 z"
       id="path58" />
  </g>
</svg>
