<?xml version="1.0" encoding="UTF-8" standalone="no"?>
<svg
   id="svg8"
   version="1.1"
   viewBox="0 0 32 32"
   height="32"
   width="32"
   xmlns="http://www.w3.org/2000/svg"
   xmlns:svg="http://www.w3.org/2000/svg"
   xmlns:rdf="http://www.w3.org/1999/02/22-rdf-syntax-ns#"
   xmlns:cc="http://creativecommons.org/ns#"
   xmlns:dc="http://purl.org/dc/elements/1.1/">
  <defs
     id="defs2" />
  <metadata
     id="metadata5">
    <rdf:RDF>
      <cc:Work
         rdf:about="">
        <dc:format>image/svg+xml</dc:format>
        <dc:type
           rdf:resource="http://purl.org/dc/dcmitype/StillImage" />
      </cc:Work>
    </rdf:RDF>
  </metadata>
  <g
     id="layer1">
    <path
       style="fill:#7137c8;fill-opacity:1;stroke-width:0.130409"
       d="M 1.0663342,28.93881 C 0.55785882,28.785298 0.39886662,28.377379 0.65885994,27.893395 0.72496976,27.770338 1.5088061,26.643736 2.4007378,25.389833 L 4.0224292,23.11002 13.77678,23.10812 c 6.790348,-9.66e-4 9.809886,-0.01276 9.937176,-0.03847 0.459879,-0.09298 0.945979,-0.296499 1.355986,-0.567868 0.450407,-0.298103 0.610414,-0.496529 2.169446,-2.690322 l 1.495735,-2.104757 0.927731,-0.0097 c 0.566186,-0.0058 0.997505,0.0048 1.10676,0.02793 0.214944,0.04456 0.377232,0.147791 0.487338,0.309972 0.109951,0.161931 0.09697,0.493098 -0.02871,0.732157 -0.04707,0.0895 -1.509595,2.163628 -3.250023,4.609063 -2.523317,3.545458 -3.212444,4.491563 -3.401524,4.669924 -0.293087,0.276482 -0.67319,0.516382 -1.088,0.686682 -0.633253,0.259984 0.373115,0.239484 -11.589264,0.236179 C 5.9919567,28.96701 1.1170627,28.95345 1.0663205,28.93808 Z m 0.08631,-7.38613 C 0.6331409,21.449958 0.43005616,21.03885 0.65332179,20.541837 0.688793,20.462873 1.6905985,19.031963 2.8795701,17.361965 L 5.0413807,14.32561 3.1172562,14.30841 C 1.6644445,14.295358 1.1687851,14.280377 1.093735,14.247129 0.78587972,14.110859 0.63876603,13.886685 0.66845746,13.59904 0.6786059,13.500967 0.72673849,13.342062 0.77545099,13.245913 0.82416349,13.149744 1.3652492,12.367406 1.9778379,11.50735 2.590417,10.647285 4.0075352,8.6551942 5.1269852,7.0804853 6.4315041,5.2454347 7.237522,4.1427827 7.3717133,4.0096256 7.7465966,3.6376325 8.3279088,3.301381 8.904804,3.1228554 L 9.1635892,3.0427311 19.946112,3.0321961 c 7.808614,-0.00773 10.831795,3.86e-5 10.961134,0.027739 0.226513,0.048616 0.449614,0.2089032 0.517783,0.3720418 0.06659,0.1593884 0.04697,0.4201936 -0.04726,0.6285745 -0.03866,0.08544 -0.628575,0.9393781 -1.311023,1.8977293 -2.558286,3.592605 -3.047325,4.2818003 -3.047325,4.2946063 0,0.0068 0.834569,0.01952 1.854603,0.02726 1.295221,0.0098 1.892239,0.02629 1.979419,0.05471 0.1631,0.05316 0.334019,0.171112 0.42406,0.292652 0.103485,0.139642 0.100208,0.499661 -0.0068,0.713435 -0.04262,0.08534 -0.563528,0.838445 -1.157569,1.673448 -0.594051,0.834995 -1.985963,2.791381 -3.093148,4.347514 -1.107175,1.556132 -2.076583,2.912196 -2.154233,3.013458 -0.174041,0.226986 -0.586463,0.56318 -0.936633,0.763549 -0.302665,0.173161 -0.82789,0.361304 -1.154032,0.413409 -0.272935,0.04359 -21.402389,0.04388 -21.622813,0 z M 24.815835,15.949399 c 1.174039,-1.649856 2.134612,-3.012347 2.134612,-3.027734 0,-0.01537 -0.410132,-0.02803 -0.911426,-0.02803 h -0.911417 l -0.125444,0.17089 c -0.392194,0.534272 -1.218112,1.028211 -1.996062,1.193756 -0.201191,0.04282 -1.283111,0.05007 -7.489654,0.05007 H 8.2619536 l -1.6366917,2.299491 c -0.9001761,1.264718 -1.6418626,2.312819 -1.648203,2.329095 -0.00677,0.01643 3.930664,0.02571 8.8463261,0.02088 l 8.857847,-0.0087 z m 0.09887,-7.2547129 c 1.1671,-1.6430901 2.127181,-3.0008447 2.133521,-3.0172272 0.0068,-0.016624 -3.88864,-0.025903 -8.845301,-0.02107 l -8.8568226,0.0087 -2.1356276,2.9994336 C 6.0358793,10.314203 5.0748415,11.668923 5.0748415,11.675002 c 0,0.0058 3.9865191,0.01015 8.8589295,0.0087 l 8.858939,-0.0019 z"
       id="path61" />
  </g>
</svg>
