<?xml version="1.0" encoding="UTF-8" standalone="no"?>
<svg
   id="svg8"
   version="1.1"
   viewBox="0 0 32 32"
   height="32"
   width="32"
   xmlns="http://www.w3.org/2000/svg"
   xmlns:svg="http://www.w3.org/2000/svg"
   xmlns:rdf="http://www.w3.org/1999/02/22-rdf-syntax-ns#"
   xmlns:cc="http://creativecommons.org/ns#"
   xmlns:dc="http://purl.org/dc/elements/1.1/">
  <defs
     id="defs2" />
  <metadata
     id="metadata5">
    <rdf:RDF>
      <cc:Work
         rdf:about="">
        <dc:format>image/svg+xml</dc:format>
        <dc:type
           rdf:resource="http://purl.org/dc/dcmitype/StillImage" />
      </cc:Work>
    </rdf:RDF>
  </metadata>
  <g
     id="g27"
     transform="matrix(0.18585963,0,0,0.18585963,-668.89111,570.68566)"
     style="fill:#7137c8;fill-opacity:1">
    <path
       style="fill:#7137c8;fill-opacity:1"
       d="m 3662.0326,-2898.4803 c 0.1819,-0.073 0.4796,-0.073 0.6615,0 0.1819,0.073 0.033,0.1335 -0.3307,0.1335 -0.3638,0 -0.5127,-0.06 -0.3308,-0.1335 z m 1.8521,-0.011 c 0.3274,-0.063 0.8632,-0.063 1.1906,0 0.3275,0.063 0.06,0.1147 -0.5953,0.1147 -0.6548,0 -0.9227,-0.052 -0.5953,-0.1147 z m -2.1001,-11.1065 c 0.191,-0.076 0.4192,-0.067 0.5071,0.021 0.088,0.088 -0.068,0.1504 -0.3473,0.1389 -0.3082,-0.013 -0.3709,-0.075 -0.1598,-0.1598 z m -37.8196,-4.5156 c -0.3291,-0.4197 -0.3197,-0.429 0.1,-0.1 0.4408,0.3456 0.5809,0.5629 0.3632,0.5629 -0.055,0 -0.2633,-0.2084 -0.4631,-0.463 z m 102.7768,-46.8974 c 0,-0.9459 0.048,-1.3329 0.1067,-0.8599 0.059,0.4729 0.059,1.2468 0,1.7198 -0.059,0.4729 -0.1067,0.086 -0.1067,-0.8599 z m -75.9354,-3.4396 c 0,-0.9459 0.048,-1.3328 0.1067,-0.8599 0.059,0.4729 0.059,1.2469 0,1.7198 -0.059,0.4729 -0.1067,0.086 -0.1067,-0.8599 z m 60.5896,-4.7625 c 0,-0.9459 0.048,-1.3328 0.1067,-0.8599 0.059,0.4729 0.059,1.2469 0,1.7198 -0.059,0.4729 -0.1067,0.086 -0.1067,-0.8599 z m -75.9354,-3.175 c 0,-0.9459 0.048,-1.3328 0.1067,-0.8599 0.059,0.4729 0.059,1.2469 0,1.7198 -0.059,0.4729 -0.1067,0.086 -0.1067,-0.8599 z m -34.7034,-53.975 c 0,-0.3638 0.06,-0.5126 0.1335,-0.3307 0.073,0.1819 0.073,0.4795 0,0.6614 -0.073,0.1819 -0.1335,0.033 -0.1335,-0.3307 z m 13.0551,-30.1625 c 0.2634,-0.291 0.5384,-0.5292 0.6112,-0.5292 0.073,0 -0.083,0.2382 -0.3466,0.5292 -0.2634,0.291 -0.5384,0.5292 -0.6112,0.5292 -0.073,0 0.083,-0.2382 0.3466,-0.5292 z"
       id="path47" />
    <path
       style="fill:#7137c8;fill-opacity:1"
       d="m 3622.5311,-2915.5691 -1.0459,-1.1245 1.1245,1.0459 c 1.0458,0.9726 1.2461,1.2031 1.0459,1.2031 -0.043,0 -0.5492,-0.5061 -1.1245,-1.1245 z m 7.3957,-8.2021 -0.5041,-0.5953 0.5954,0.504 c 0.3274,0.2772 0.5953,0.5451 0.5953,0.5953 0,0.2118 -0.213,0.055 -0.6866,-0.504 z m 96.8171,-40.5474 c 0,-1.0187 0.049,-1.4029 0.1063,-0.854 0.057,0.5489 0.056,1.3824 0,1.8521 -0.059,0.4697 -0.1053,0.02 -0.1042,-0.9981 z m -15.3458,-1.5875 c 0,-1.0187 0.049,-1.4029 0.1063,-0.854 0.057,0.5489 0.056,1.3824 0,1.8521 -0.058,0.4697 -0.1053,0.021 -0.1041,-0.9981 z m -60.5896,-1.8521 c 0,-1.0186 0.049,-1.4029 0.1063,-0.854 0.057,0.549 0.056,1.3824 0,1.8521 -0.058,0.4697 -0.1054,0.021 -0.1042,-0.9981 z m -15.3479,-1.4552 c 0,-0.9459 0.048,-1.3328 0.1067,-0.8599 0.059,0.4729 0.059,1.2469 0,1.7198 -0.059,0.4729 -0.1067,0.086 -0.1067,-0.8599 z m 133.5814,-39.5552 c 0.01,-0.4366 0.065,-0.5831 0.1318,-0.3257 0.067,0.2574 0.063,0.6146 -0.01,0.7938 -0.073,0.1791 -0.1274,-0.032 -0.122,-0.4681 z m 0,-3.7042 c 0.01,-0.4365 0.065,-0.5831 0.1318,-0.3257 0.067,0.2575 0.063,0.6147 -0.01,0.7938 -0.073,0.1791 -0.1274,-0.032 -0.122,-0.4681 z m -168.2545,-12.3031 c 0,-0.6548 0.052,-0.9227 0.1147,-0.5953 0.063,0.3274 0.063,0.8632 0,1.1906 -0.063,0.3274 -0.1147,0.06 -0.1147,-0.5953 z"
       id="path45" />
    <path
       style="fill:#7137c8;fill-opacity:1"
       d="m 3631.6379,-2922.0514 c -0.3291,-0.4197 -0.3197,-0.429 0.1,-0.1 0.2547,0.1997 0.4631,0.4081 0.4631,0.463 0,0.2178 -0.2173,0.078 -0.563,-0.3631 z m 92.3734,-16.0411 c 0,-0.055 0.2083,-0.2633 0.463,-0.463 0.4196,-0.3291 0.429,-0.3197 0.1,0.1 -0.3456,0.4407 -0.5629,0.5809 -0.5629,0.3631 z m -12.6153,-24.5063 c 0,-0.9459 0.048,-1.3329 0.1067,-0.8599 0.059,0.4729 0.059,1.2468 0,1.7198 -0.059,0.4729 -0.1067,0.086 -0.1067,-0.8599 z m -75.9354,-3.4396 c 0,-0.9459 0.048,-1.3328 0.1067,-0.8599 0.059,0.4729 0.059,1.2469 0,1.7198 -0.059,0.4729 -0.1067,0.086 -0.1067,-0.8599 z m 91.2812,-1.5875 c 0,-0.9459 0.048,-1.3328 0.1067,-0.8599 0.059,0.4729 0.059,1.2469 0,1.7198 -0.059,0.4729 -0.1067,0.086 -0.1067,-0.8599 z m -75.9354,-3.4396 c 0,-0.9459 0.048,-1.3328 0.1067,-0.8599 0.059,0.473 0.059,1.2469 0,1.7198 -0.059,0.473 -0.1067,0.086 -0.1067,-0.8599 z m 118.2597,-39.5552 c 0,-0.7276 0.053,-0.9938 0.1142,-0.5917 0.061,0.4022 0.059,0.9975 0,1.323 -0.063,0.3254 -0.1126,0 -0.1106,-0.7313 z m -147.4486,-38.1 c 0.3418,-0.3638 0.681,-0.6614 0.7537,-0.6614 0.073,0 -0.1473,0.2976 -0.4891,0.6614 -0.3418,0.3638 -0.6809,0.6615 -0.7537,0.6615 -0.073,0 0.1474,-0.2977 0.4891,-0.6615 z"
       id="path44" />
    <path
       style="fill:#7137c8;fill-opacity:1"
       d="m 3732.7425,-2922.2175 c 0,-0.055 0.2084,-0.2633 0.4631,-0.463 0.4196,-0.3291 0.429,-0.3197 0.1,0.1 -0.3456,0.4407 -0.5629,0.5809 -0.5629,0.3631 z m -21.3444,-37.074 c 0,-1.0187 0.049,-1.403 0.1063,-0.854 0.057,0.5489 0.056,1.3824 0,1.8521 -0.058,0.4697 -0.1053,0.021 -0.1041,-0.9981 z m -75.9354,-3.4396 c 0,-1.0187 0.049,-1.4029 0.1063,-0.854 0.057,0.5489 0.056,1.3824 0,1.8521 -0.058,0.4697 -0.1053,0.021 -0.1041,-0.9981 z m 91.2812,-8.2021 c 0,-1.0186 0.049,-1.4029 0.1063,-0.854 0.057,0.549 0.056,1.3824 0,1.8521 -0.059,0.4697 -0.1053,0.021 -0.1042,-0.9981 z m -75.9375,-3.3073 c 0,-0.9459 0.048,-1.3328 0.1067,-0.8599 0.059,0.473 0.059,1.2469 0,1.7198 -0.059,0.473 -0.1067,0.086 -0.1067,-0.8599 z"
       id="path43" />
    <path
       style="fill:#7137c8;fill-opacity:1"
       d="m 3665.7164,-2951.4201 c 8.3199,-0.039 22.0121,-0.039 30.4271,0 8.415,0.039 1.6079,0.07 -15.127,0.07 -16.7349,0 -23.6199,-0.032 -15.3001,-0.07 z m 45.6817,-4.4318 c 0,-1.0187 0.049,-1.403 0.1063,-0.854 0.057,0.5489 0.056,1.3824 0,1.852 -0.058,0.4697 -0.1053,0.021 -0.1041,-0.998 z m -75.9354,-3.4396 c 0,-1.0187 0.049,-1.403 0.1063,-0.854 0.057,0.5489 0.056,1.3824 0,1.8521 -0.058,0.4697 -0.1053,0.021 -0.1041,-0.9981 z m 91.2791,-14.949 c 0,-0.9459 0.048,-1.3328 0.1067,-0.8599 0.059,0.473 0.059,1.2469 0,1.7198 -0.059,0.473 -0.1067,0.086 -0.1067,-0.8599 z m -75.9333,-3.3073 c 0,-1.0186 0.049,-1.4029 0.1063,-0.854 0.057,0.549 0.056,1.3824 0,1.8521 -0.058,0.4697 -0.1054,0.021 -0.1042,-0.9981 z m 60.8091,-14.6843 c 0,-0.3638 0.06,-0.5127 0.1335,-0.3308 0.073,0.1819 0.073,0.4796 0,0.6615 -0.073,0.1819 -0.1335,0.033 -0.1335,-0.3307 z m -75.9104,-3.5719 c 0,-0.5821 0.057,-0.7891 0.1204,-0.46 0.063,0.3292 0.061,0.8054 -0.01,1.0584 -0.066,0.2529 -0.118,-0.016 -0.115,-0.5984 z m 12.4348,-74.673 c 0.5457,-0.057 1.4387,-0.057 1.9844,0 0.5457,0.057 0.099,0.1038 -0.9922,0.1038 -1.0914,0 -1.5379,-0.047 -0.9922,-0.1038 z"
       id="path42" />
    <path
       style="fill:#7137c8;fill-opacity:1"
       d="m 3711.3906,-2952.8092 c 0,-0.8004 0.05,-1.1278 0.1102,-0.7276 0.061,0.4001 0.061,1.055 0,1.4552 -0.061,0.4002 -0.1102,0.073 -0.1102,-0.7276 z m -75.93,-3.175 c 0,-0.9459 0.048,-1.3329 0.1067,-0.8599 0.059,0.4729 0.059,1.2468 0,1.7198 -0.059,0.4729 -0.1067,0.086 -0.1067,-0.8599 z m 91.2833,-21.5636 c 0,-1.0186 0.049,-1.4029 0.1063,-0.854 0.057,0.549 0.056,1.3824 0,1.8521 -0.059,0.4697 -0.1053,0.021 -0.1042,-0.9981 z m -75.9354,-3.4396 c 0,-1.0186 0.049,-1.4029 0.1063,-0.8539 0.057,0.5489 0.056,1.3823 0,1.852 -0.058,0.4697 -0.1054,0.021 -0.1042,-0.9981 z m 60.8542,-8.9958 c 0,-1.0186 0.049,-1.4029 0.1063,-0.854 0.057,0.549 0.056,1.3824 0,1.8521 -0.058,0.4697 -0.1053,0.021 -0.1041,-0.9981 z m -75.9376,-3.3073 c 0,-0.9459 0.048,-1.3328 0.1067,-0.8599 0.059,0.473 0.059,1.2469 0,1.7198 -0.059,0.473 -0.1067,0.086 -0.1067,-0.8599 z"
       id="path41" />
    <path
       style="fill:#7137c8;fill-opacity:1"
       d="m 3726.4539,-2944.078 c 0,-0.5093 0.055,-0.7177 0.121,-0.463 0.067,0.2547 0.067,0.6714 0,0.926 -0.066,0.2547 -0.121,0.046 -0.121,-0.463 z m -90.9933,-8.7312 c 0,-0.9459 0.048,-1.3329 0.1067,-0.8599 0.059,0.4729 0.059,1.2468 0,1.7198 -0.059,0.4729 -0.1067,0.086 -0.1067,-0.8599 z m 91.2812,-28.0459 c 0,-0.9458 0.048,-1.3328 0.1067,-0.8599 0.059,0.473 0.059,1.2469 0,1.7198 -0.059,0.473 -0.1067,0.086 -0.1067,-0.8599 z m -75.9354,-3.4395 c 0,-0.9459 0.048,-1.3329 0.1067,-0.8599 0.059,0.4729 0.059,1.2468 0,1.7197 -0.059,0.473 -0.1067,0.086 -0.1067,-0.8598 z m 60.8542,-2.3813 c 0,-0.9459 0.048,-1.3328 0.1067,-0.8599 0.059,0.473 0.059,1.2469 0,1.7198 -0.059,0.4729 -0.1067,0.086 -0.1067,-0.8599 z m -75.9355,-3.4396 c 0,-0.9459 0.048,-1.3328 0.1067,-0.8599 0.059,0.473 0.059,1.2469 0,1.7198 -0.059,0.473 -0.1067,0.086 -0.1067,-0.8599 z m 12.5492,-69.5075 c 0.3274,-0.063 0.8632,-0.063 1.1906,0 0.3274,0.063 0.06,0.1146 -0.5953,0.1146 -0.6548,0 -0.9227,-0.052 -0.5953,-0.1146 z"
       id="path38" />
    <path
       style="fill:#7137c8;fill-opacity:1"
       d="m 3657.6143,-2898.8734 c -7.2893,-0.7612 -15.7449,-3.4277 -21.8416,-6.8879 -16.5004,-9.3649 -26.3482,-24.0679 -29.6418,-44.2555 -0.4366,-2.676 -5.1538,-71.8917 -5.1457,-75.5025 0.014,-6.1813 1.7771,-13.4162 4.6872,-19.2326 5.4607,-10.9145 14.7505,-18.7963 26.9636,-22.8771 6.3407,-2.1187 11.1643,-2.7962 18.3377,-2.5758 8.7599,0.2691 12.0638,1.2225 27.2647,7.8677 5.748,2.5128 11.7041,5.0152 13.2358,5.5608 5.1001,1.817 11.2976,3.0006 25.5256,4.8747 14.8478,1.9558 19.2139,2.693 25.2373,4.2613 8.4774,2.2072 13.4659,4.7838 17.5522,9.0658 3.2075,3.3611 5.3175,6.9526 6.9248,11.7867 3.3891,10.1934 2.9349,25.2283 -1.3035,43.1546 -1.3989,5.9163 -13.1112,49.6474 -13.889,51.8583 -5.7631,16.3808 -20.5841,28.0604 -38.1058,30.029 -4.4077,0.4952 -47.6855,3.1776 -50.6796,3.1411 -1.5875,-0.019 -3.8924,-0.1402 -5.1219,-0.2686 z m 31.0751,-11.9978 c 12.5148,-0.8003 23.9386,-1.6371 25.3863,-1.8595 6.7104,-1.0307 13.2593,-4.2841 18.6147,-9.2472 3.3899,-3.1417 6.95,-8.6379 8.6156,-13.3015 0.5985,-1.6756 11.0301,-40.5865 13.1711,-49.1291 1.1256,-4.4913 2.2326,-10.0956 2.9179,-14.7722 0.4865,-3.3197 0.593,-5.2231 0.603,-10.7785 0.013,-7.2115 -0.1792,-9.0134 -1.3696,-12.8323 -1.0873,-3.4886 -2.3562,-5.7942 -4.3836,-7.9651 -2.1385,-2.2898 -4.2568,-3.6244 -7.8606,-4.9525 -5.4678,-2.0148 -11.3837,-3.1522 -27.7813,-5.3411 -12.3094,-1.6431 -15.6408,-2.1756 -20.8586,-3.3341 -5.6161,-1.2469 -9.6456,-2.7241 -21.1772,-7.7637 -5.8754,-2.5677 -11.5806,-4.9699 -12.678,-5.3383 -14.0278,-4.709 -30.355,-1.1081 -40.2716,8.8816 -3.8716,3.9002 -6.3456,7.905 -8.0725,13.0678 -1.1095,3.3167 -1.7146,6.9252 -1.7159,10.2318 -8e-4,2.179 3.7219,59.5053 4.4999,69.2939 0.8151,10.2549 4.1048,19.7592 9.488,27.4113 2.0069,2.8529 7.5304,8.3258 10.6172,10.52 3.1535,2.2417 9.052,5.2041 12.744,6.4005 2.5642,0.8309 7.1273,1.8318 9.481,2.0796 2.9809,0.3139 9.6639,0.031 30.0302,-1.2714 z m -47.3604,-25.515 c -2.8135,-0.691 -5.0094,-2.948 -5.6523,-5.8096 -0.1448,-0.6444 -0.1562,-12.0641 -0.028,-28.4957 l 0.2132,-27.4205 0.8333,-1.6927 c 0.833,-1.6919 0.8429,-1.7004 20.4178,-17.458 11.1191,-8.9509 20.1044,-15.9954 20.7874,-16.2975 2.1163,-0.9362 5.1859,-0.6422 7.0853,0.6784 3.0842,2.1444 39.4468,30.8261 40.2066,31.7137 1.8148,2.1202 1.7469,0.7135 1.5155,31.4255 -0.2043,27.1064 -0.219,27.6726 -0.7525,28.8531 -0.7903,1.7485 -2.0365,3.0382 -3.7476,3.8785 l -1.5032,0.7382 -39.2906,0.041 c -21.6099,0.023 -39.6478,-0.047 -40.0844,-0.1542 z m 70.0682,-15.034 c 0.064,-0.1091 0.1607,-9.483 0.214,-20.8308 l 0.097,-20.6324 -15.3208,-11.9775 c -8.4264,-6.5876 -15.4029,-11.9775 -15.5035,-11.9775 -0.1005,0 -6.8389,5.358 -14.9741,11.9066 l -14.7912,11.9065 -0.1634,4.0346 c -0.09,2.219 -0.1792,11.6248 -0.1985,20.9018 l -0.035,16.8672 h 30.2792 c 16.6535,0 30.3318,-0.089 30.3963,-0.1985 z"
       id="path35" />
  </g>
</svg>
