<?xml version="1.0" encoding="UTF-8" standalone="no"?>
<svg
   id="svg8"
   version="1.1"
   viewBox="0 0 32 32"
   height="32"
   width="32"
   xmlns="http://www.w3.org/2000/svg"
   xmlns:svg="http://www.w3.org/2000/svg"
   xmlns:rdf="http://www.w3.org/1999/02/22-rdf-syntax-ns#"
   xmlns:cc="http://creativecommons.org/ns#"
   xmlns:dc="http://purl.org/dc/elements/1.1/">
  <defs
     id="defs2" />
  <metadata
     id="metadata5">
    <rdf:RDF>
      <cc:Work
         rdf:about="">
        <dc:format>image/svg+xml</dc:format>
        <dc:type
           rdf:resource="http://purl.org/dc/dcmitype/StillImage" />
      </cc:Work>
    </rdf:RDF>
  </metadata>
  <g
     id="layer1">
    <path
       style="fill:#7137c8;stroke-width:0.120325;fill-opacity:1"
       d="m 22.068196,31.928863 c -0.359807,-0.15137 -0.544591,-0.324145 -0.702077,-0.656341 -0.06417,-0.135361 -0.936146,-3.109696 -2.013634,-6.868359 l -0.04789,-0.167154 h -1.191578 -1.191578 v 0.456538 c 0,0.446465 0,0.460855 -0.09835,0.653328 -0.346631,0.693667 -1.333909,0.66781 -1.658325,-0.04317 -0.06228,-0.13653 -0.07429,-0.223773 -0.08423,-0.61326 l -0.01169,-0.454065 -1.135141,0.0085 -1.135141,0.0085 -1.03634,3.454214 c -0.569998,1.899815 -1.059635,3.49806 -1.088101,3.551709 -0.243514,0.458563 -0.8498945,0.753343 -1.3560805,0.659221 -0.658005,-0.122364 -1.139547,-0.736165 -1.078927,-1.375417 0.0094,-0.09745 0.426453,-1.541808 0.927153,-3.209621 0.500654,-1.667814 0.9102885,-3.045928 0.9102885,-3.062523 0,-0.01799 -0.3968185,-0.03418 -0.9948335,-0.03957 -0.962229,-0.0094 -0.999284,-0.01214 -1.129338,-0.08148 -0.18294,-0.09776 -0.353557,-0.274903 -0.434054,-0.450647 -0.101453,-0.221478 -0.09372,-0.572247 0.01709,-0.782798 0.09979,-0.189325 0.243964,-0.331701 0.439765,-0.434323 0.142512,-0.07465 0.149976,-0.0751 1.408245,-0.08468 l 1.2649695,-0.0094 0.07897,-0.260963 c 0.520667,-1.720518 3.146348,-10.501823 3.159164,-10.565546 0.01529,-0.07694 0,-0.09358 -0.153484,-0.171517 -0.09385,-0.04749 -0.287405,-0.163917 -0.430095,-0.25876 -2.207727,-1.4672448 -2.736218,-4.4506608 -1.163517,-6.5680008 0.589696,-0.79391 1.407751,-1.37505 2.368496,-1.68265 0.169853,-0.0544 0.366823,-0.10815 0.43774,-0.11948 0.102174,-0.0162 0.129606,-0.0346 0.132169,-0.0882 0,-0.0373 0.01304,-0.51168 0.02473,-1.05451 0.01979,-0.92549002 0.02563,-0.99483002 0.08953,-1.11423002 0.362865,-0.67747 1.321406,-0.67158 1.656166,0.01 l 0.08881,0.18087 0.0094,1.02595002 0.0094,1.02591 0.133653,0.0342 c 1.395607,0.35864 2.503135,1.23785 3.126829,2.48227 0.727889,1.45218 0.620815,3.180743 -0.281604,4.546266 -0.369746,0.5594758 -0.776097,0.9657368 -1.334629,1.3343138 -0.170752,0.11265 -0.310025,0.221703 -0.309575,0.242255 0,0.02069 0.714353,2.501518 1.586417,5.513223 l 1.585563,5.475809 1.207183,0.01574 1.207227,0.01574 0.15915,0.08468 c 0.669068,0.35603 0.693758,1.275223 0.04407,1.635075 l -0.171247,0.09489 -0.950132,0.0099 -0.950133,0.0099 0.02159,0.0858 c 0.01169,0.04717 0.415256,1.445526 0.896528,3.107493 0.481272,1.661922 0.883217,3.090583 0.893155,3.174723 0.04272,0.359627 -0.134551,0.812927 -0.417864,1.069034 -0.256601,0.232001 -0.452222,0.307237 -0.830152,0.31929 -0.28012,0.009 -0.340694,0 -0.504162,-0.06799 z m -6.98708,-10.453616 c 0.0094,-0.877145 0.01259,-0.921936 0.08301,-1.074475 0.327384,-0.711385 1.312278,-0.737109 1.658954,-0.04362 l 0.09835,0.196834 v 0.918159 0.918159 h 0.926613 c 0.728159,0 0.923465,-0.0085 0.911593,-0.04002 -0.0081,-0.02203 -0.606739,-2.084868 -1.329862,-4.584407 -0.723167,-2.499539 -1.318529,-4.540921 -1.323071,-4.536379 -0.0045,0.0045 -0.618836,2.046509 -1.365074,4.537684 -0.746236,2.491129 -1.364848,4.550409 -1.374742,4.576132 -0.01529,0.04047 0.09898,0.04677 0.843283,0.04677 h 0.861182 z M 16.494487,9.2743102 c 0.402934,-0.101498 0.690879,-0.263975 0.987188,-0.557047 0.301706,-0.298378 0.462835,-0.567075 0.554079,-0.923914 0.238478,-0.932371 -0.21181,-1.884881 -1.09768,-2.322131 -0.302785,-0.14948 -0.606244,-0.21734 -0.971718,-0.21734 -1.192658,0 -2.133031,0.89297 -2.133031,2.025505 0,0.358908 0.04362,0.556372 0.191618,0.864508 0.252014,0.525343 0.71179,0.921622 1.268432,1.093229 0.276028,0.08508 0.317716,0.0912 0.659894,0.09632 0.196296,0.0045 0.370421,-0.01619 0.541218,-0.05913 z"
       id="path40" />
  </g>
</svg>
