<?xml version="1.0" encoding="UTF-8" standalone="no"?>
<svg
   id="svg8"
   version="1.1"
   viewBox="0 0 32 32"
   height="32"
   width="32"
   xmlns="http://www.w3.org/2000/svg"
   xmlns:svg="http://www.w3.org/2000/svg"
   xmlns:rdf="http://www.w3.org/1999/02/22-rdf-syntax-ns#"
   xmlns:cc="http://creativecommons.org/ns#"
   xmlns:dc="http://purl.org/dc/elements/1.1/">
  <defs
     id="defs2" />
  <metadata
     id="metadata5">
    <rdf:RDF>
      <cc:Work
         rdf:about="">
        <dc:format>image/svg+xml</dc:format>
        <dc:type
           rdf:resource="http://purl.org/dc/dcmitype/StillImage" />
      </cc:Work>
    </rdf:RDF>
  </metadata>
  <g
     id="layer1">
    <path
       style="fill:#7137c8;stroke-width:0.190551;fill-opacity:1"
       d="M 4.3793226,31.36955 C 3.1901854,31.107336 2.2719002,30.376169 1.7280149,29.258528 1.3222195,28.424662 1.3543291,29.531494 1.3543291,16.369692 1.3543291,3.146508 1.3155312,4.3884471 1.7564089,3.4882483 2.2245705,2.5323137 2.9700602,1.8834039 4.0264062,1.512401 L 4.4297213,1.37075 11.124546,1.3570452 17.81937,1.3433405 17.42422,1.7351514 C 16.937479,2.2177996 16.409499,2.899678 16.075982,3.4764641 l -0.252081,0.435917 -5.345785,0.00193 C 6.2517572,3.9162416 5.0792585,3.9303324 4.8788315,3.982256 4.5562296,4.0659321 4.28531,4.2726614 4.1121284,4.5672168 L 3.9759882,4.7988076 V 16.394621 27.990453 l 0.1397691,0.237778 c 0.1703827,0.289845 0.4082469,0.478411 0.7230409,0.573138 0.3637258,0.109473 21.4104958,0.106762 21.7777058,-0.0029 0.331944,-0.09903 0.613673,-0.341586 0.758818,-0.653291 L 27.49437,27.889517 V 21.779933 15.67035 l 0.441148,-0.23272 c 0.570069,-0.300723 1.241591,-0.781489 1.764582,-1.263317 l 0.415948,-0.383211 -0.0019,6.998789 c 0,4.352781 -0.01988,7.129487 -0.05096,7.344487 -0.192591,1.332236 -1.003747,2.417729 -2.22484,2.977297 -0.77869,0.356835 0.11429,0.332668 -12.127097,0.328209 -8.9524483,-0.0029 -11.0883034,-0.0166 -11.3337824,-0.07074 z m 1.4620836,-5.797482 c -0.027699,-0.0097 -0.1123885,-0.03137 -0.1881506,-0.04806 -0.1732878,-0.03822 -0.4726109,-0.297943 -0.5778865,-0.501535 -0.096126,-0.185989 -0.1051887,-0.618316 -0.016407,-0.790233 0.090432,-0.175286 0.3053938,-0.39766 0.4648899,-0.480988 0.1104197,-0.05772 0.5084459,-0.07113 2.1065057,-0.07113 2.0807362,0 2.1810422,0.0099 2.4370113,0.241406 0.315268,0.285107 0.380684,0.850582 0.141922,1.227057 -0.2671941,0.421305 -0.2642991,0.420794 -2.426801,0.43169 -1.0398424,0.0048 -1.9133075,0.0019 -1.9410258,-0.0077 z M 12.4964,25.521208 c -0.348236,-0.191548 -0.577578,-0.542235 -0.577578,-0.883174 0,-0.378144 0.303242,-0.78836 0.664526,-0.898954 0.103963,-0.03185 2.473503,-0.06293 6.396533,-0.08387 6.804658,-0.03638 6.427237,-0.0498 6.744251,0.241561 0.162353,0.149266 0.306929,0.474666 0.306929,0.690825 0,0.348351 -0.294691,0.781913 -0.61322,0.902226 -0.0886,0.03349 -2.349852,0.06264 -6.453334,0.0831 -5.81219,0.02895 -6.328946,0.0249 -6.468107,-0.05173 z m -6.6805309,-5.11485 c -0.3993967,-0.1215 -0.6093978,-0.332833 -0.7099732,-0.714471 -0.076245,-0.289315 0.00193,-0.586476 0.2200673,-0.834735 0.2806094,-0.319571 0.2802426,-0.319532 2.4389422,-0.319532 1.8860715,0 1.9593915,0.0039 2.1728485,0.106954 0.4032281,0.195187 0.6162011,0.724615 0.4698791,1.167992 -0.07171,0.217452 -0.343448,0.491518 -0.5678201,0.57281 -0.189367,0.06862 -3.8053822,0.08744 -4.0239438,0.02094 z m 6.7142229,-0.05656 c -0.530836,-0.273824 -0.680749,-1.005233 -0.295887,-1.443582 0.336509,-0.38325 -0.176801,-0.3553 6.895473,-0.375626 l 6.330754,-0.01834 0.204596,0.135252 c 0.511892,0.33844 0.60271,0.980652 0.203052,1.435842 -0.300906,0.342706 0.1392,0.320035 -6.807254,0.350919 l -6.312346,0.02809 z m 0.268806,-5.009208 c -0.0277,-0.01149 -0.112388,-0.03455 -0.18815,-0.05125 -0.184754,-0.04073 -0.491528,-0.316792 -0.575619,-0.51803 -0.08165,-0.195321 -0.0886,-0.559269 -0.01448,-0.755382 0.02944,-0.07808 0.11456,-0.207115 0.189068,-0.286786 0.268922,-0.287616 0.299786,-0.291428 2.603708,-0.320923 l 2.119631,-0.02712 0.219758,0.262012 c 0.307267,0.366312 0.983267,0.94666 1.55766,1.337226 l 0.486103,0.330535 -2.089683,1.16e-4 c -1.149307,7.7e-5 -2.577447,0.01139 -3.173632,0.02529 -0.596176,0.01371 -1.106639,0.01583 -1.134367,0.0039 z M 5.6901425,15.22716 C 5.3417622,15.043488 5.1125649,14.696603 5.1125649,14.353 c 0,-0.389214 0.3103159,-0.796351 0.6932959,-0.909647 0.1255431,-0.03716 0.8150847,-0.04999 2.1026259,-0.03918 2.1081563,0.01776 2.0845872,0.01428 2.3592423,0.340707 0.389755,0.463211 0.256771,1.197998 -0.264994,1.464178 -0.1904571,0.09716 -0.2904731,0.101734 -2.1804724,0.09981 -1.7061439,-0.0019 -2.0018381,-0.01312 -2.1321201,-0.08175 z M 23.276244,13.894326 c -0.353361,-0.135861 -0.732268,-0.502028 -0.907882,-0.877355 l -0.141545,-0.302498 -0.01486,-1.903241 -0.01486,-1.9032217 -1.043877,-0.00483 C 20.57908,8.9002893 19.734974,8.8833031 19.277448,8.8649658 18.559146,8.8361086 18.414078,8.8161306 18.214896,8.7183444 17.840535,8.5345754 17.582191,8.2782195 17.401549,7.9112992 17.253123,7.6098045 17.235577,7.5286184 17.235577,7.1434958 c 0,-0.3851225 0.01756,-0.4663183 0.165972,-0.7678129 C 17.582056,6.0090231 17.839985,5.7529665 18.214896,5.5682034 18.439741,5.457417 18.492417,5.4541838 20.296,5.4401606 l 1.850403,-0.014284 0.01506,-1.7754202 0.01506,-1.7754299 0.132849,-0.2833214 c 0.351527,-0.7497266 1.108569,-1.15297413 1.88169,-1.00233779 0.593319,0.11558308 1.022693,0.45156159 1.28093,1.00233779 l 0.13285,0.2833214 0.01564,1.7724766 0.01544,1.7724477 1.824681,0.020268 c 1.745771,0.019399 1.837082,0.025093 2.111476,0.1332351 0.380451,0.1498932 0.753075,0.5051742 0.932916,0.889515 0.12037,0.2572631 0.141545,0.3667755 0.141545,0.7320938 0,0.3839257 -0.01776,0.4654593 -0.165972,0.7667416 -0.180449,0.366544 -0.43251,0.6169257 -0.810298,0.8048737 -0.228415,0.1136432 -0.276643,0.116857 -2.120278,0.1414966 l -1.886573,0.02519 0.01071,1.7393734 c 0.01197,1.954923 -0.01139,2.144232 -0.322226,2.598998 -0.198497,0.290482 -0.372798,0.432018 -0.745721,0.605653 -0.342706,0.159564 -0.939325,0.167227 -1.329814,0.01718 z m -10.615281,-3.52401 c -0.433852,-0.130649 -0.708342,-0.4904852 -0.708342,-0.9285736 0,-0.142346 0.03609,-0.3286436 0.0802,-0.413999 0.114202,-0.2208394 0.407918,-0.4629211 0.601097,-0.4954457 0.09072,-0.015249 0.635186,-0.033393 1.209946,-0.040342 l 1.044996,-0.012547 0.02866,0.2268714 c 0.02596,0.2053974 0.242776,1.3228259 0.310596,1.6007229 l 0.0277,0.113431 -1.228486,-0.0048 c -0.675672,-0.0019 -1.290562,-0.02307 -1.36642,-0.04584 z M 5.5221726,10.261913 C 4.9822637,9.9946611 4.8396572,9.2529644 5.2424608,8.8071067 5.563393,8.4518836 5.6018628,8.446643 7.7593173,8.4640442 c 1.8674636,0.015056 1.9188276,0.018144 2.1237716,0.1277243 0.3059631,0.1635883 0.5210221,0.5220542 0.5210221,0.868456 0,0.2472161 -0.243163,0.6483115 -0.4756521,0.7845575 l -0.213842,0.125302 -1.9870232,-3.9e-5 c -1.9299944,-3.8e-5 -1.9932968,-0.0029 -2.2054211,-0.108132 z"
       id="path56" />
  </g>
</svg>
