<?xml version="1.0" encoding="UTF-8" standalone="no"?>
<svg
   sodipodi:docname="szablon eksportu.svg"
   inkscape:version="1.4 (86a8ad7, 2024-10-11)"
   id="svg8"
   version="1.1"
   viewBox="0 0 32 32"
   height="32"
   width="32"
   xmlns:inkscape="http://www.inkscape.org/namespaces/inkscape"
   xmlns:sodipodi="http://sodipodi.sourceforge.net/DTD/sodipodi-0.dtd"
   xmlns="http://www.w3.org/2000/svg"
   xmlns:svg="http://www.w3.org/2000/svg"
   xmlns:rdf="http://www.w3.org/1999/02/22-rdf-syntax-ns#"
   xmlns:cc="http://creativecommons.org/ns#"
   xmlns:dc="http://purl.org/dc/elements/1.1/">
  <defs
     id="defs2" />
  <sodipodi:namedview
     inkscape:window-maximized="1"
     inkscape:window-y="-11"
     inkscape:window-x="214"
     inkscape:window-height="2126"
     inkscape:window-width="3840"
     units="px"
     showgrid="false"
     inkscape:document-rotation="0"
     inkscape:current-layer="layer1"
     inkscape:document-units="px"
     inkscape:cy="9.81742"
     inkscape:cx="26.705908"
     inkscape:zoom="15.839192"
     inkscape:pageshadow="2"
     inkscape:pageopacity="0.0"
     borderopacity="1.0"
     bordercolor="#666666"
     pagecolor="#ffffff"
     id="base"
     inkscape:pagecheckerboard="0"
     showguides="true"
     inkscape:guide-bbox="true"
     inkscape:showpageshadow="2"
     inkscape:deskcolor="#d1d1d1">
    <sodipodi:guide
       position="12.410714,19.758929"
       orientation="1,0"
       id="guide1048"
       inkscape:locked="false" />
  </sodipodi:namedview>
  <metadata
     id="metadata5">
    <rdf:RDF>
      <cc:Work
         rdf:about="">
        <dc:format>image/svg+xml</dc:format>
        <dc:type
           rdf:resource="http://purl.org/dc/dcmitype/StillImage" />
      </cc:Work>
    </rdf:RDF>
  </metadata>
  <g
     id="layer1"
     inkscape:groupmode="layer"
     inkscape:label="Warstwa 1">
    <path
       id="rect6-1-3"
       style="fill:#7137c8;fill-opacity:1;stroke:none;stroke-width:4.40025;stroke-linecap:round;stroke-linejoin:round"
       d="m 19.144661,8.235e-4 v 1.047105 1.472677 h -5.611359 c -5.2775332,0 -5.6281472,0.0084 -5.8914732,0.141277 -0.555424,0.280602 -0.580433,0.406414 -0.580433,2.860713 l 0.007,2.208945 -1.459162,-0.0084 c -1.629767,-0.007 -1.846698,-0.05085 -2.166242,-0.472943 l -0.196728,-0.260609 0.01533,-6.967907 c -0.760233,0.06479 -1.466965,0.305263 -2.084458,0.679284 0.01742,6.404751 0.03971,8.268168 0.15305,8.430762 0.332083,0.477261 0.34518,0.482904 3.159776,0.505266 l 2.572657,0.02369 v 3.4061755 3.406452 h -2.559073 c -2.422114,0 -2.573353,0.0084 -2.827344,0.156325 -0.559743,0.325883 -0.538635,0.07329 -0.513695,6.292663 0.0209,5.356741 0.02926,5.61317 0.178616,5.821114 0.328461,0.454135 0.113481,0.441804 6.210321,0.441804 h 5.5938032 v 2.814735 h 2.131201 v -2.816407 h 1.931757 1.931756 v 2.816407 h 2.127579 l 0.01811,-2.815015 h 1.753488 c 1.74924,0 1.752514,0 1.803089,0.174297 0.02578,0.08158 0.03831,1.26536 0.04667,2.640788 h 1.131119 c 0.340861,0 0.672876,-0.03553 0.993465,-0.102475 l -0.007,-0.631773 c -0.02926,-3.712135 -0.03344,-6.777937 -0.0084,-6.82071 0.02717,-0.0418 1.09573,-0.07057 2.508288,-0.07057 h 1.341013 v -1.971046 c -0.457546,0.01115 -0.687713,0.02369 -1.451847,0.02787 l -2.359766,0.01184 v -2.018696 -2.019044 h 2.465863 1.34575 v -1.934055 h -1.345751 -2.465863 v -1.705212 -1.705142 h 2.465863 1.345751 v -2.022458 h -1.346029 -2.466839 l 0.0209,-3.2360575 0.0209,-3.236127 2.445731,-0.01672 1.310293,-0.0091 c -0.04319,-0.729303 -0.24013,-1.415484 -0.569148,-2.021134 H 29.501215 27.035283 V 1.0467355 0.1085135 C 26.707239,0.0385735 26.367214,-2.15e-5 26.017715,-2.15e-5 h -1.160517 v 1.046757 l 0.007,1.444951 -1.781911,0.01602 c -0.980089,0.01184 -1.796889,-0.0077 -1.808453,-0.03623 -0.01672,-0.03274 -0.01672,-0.696909 -0.0084,-1.475673 l 0.01742,-0.995554 z m -1.772925,4.552062 c 6.17772,-0.01742 7.354468,-0.007 7.433953,0.08701 0.06479,0.07816 0.08429,0.964276 0.07335,3.237799 l -0.02159,3.1372065 -1.828864,0.01602 -1.829213,0.01672 V 9.7634015 c 0,-1.402944 -0.04876,-1.597443 -0.468344,-1.865576 -0.219021,-0.138978 -0.503873,-0.150054 -5.861101,-0.186558 l -5.6305162,-0.03622 v -1.1764 c 0,-1.286259 0.03274,-1.388942 0.565873,-1.764426 0.2247332,-0.15709 0.2994122,-0.164892 7.5666612,-0.180915 z m -8.1721722,5.098778 h 4.6380272 4.638026 l 0.254688,0.201744 c 0.318917,0.2528775 0.3805,0.3659405 0.451068,0.8251595 l 0.05573,0.368099 h -2.597526 c -2.413337,0 -2.619958,0.01115 -2.911707,0.151448 -0.562599,0.270432 -0.583637,0.379733 -0.583637,2.980464 v 2.295885 h -1.918172 c -1.054768,0 -1.9433202,-0.02508 -1.9727882,-0.05364 -0.02926,-0.02787 -0.05503,-1.563029 -0.05503,-3.410354 z M 17.698108,13.06174 h 1.446553 v 1.705212 1.705491 l -2.389094,-0.01184 -1.487933,0.01184 0.02508,-1.337392 c 0.02578,-1.236031 0.0411,-1.354876 0.210731,-1.578982 0.331178,-0.440271 0.580502,-0.494329 2.192296,-0.494329 z m 3.542714,0.03831 h 1.808313 1.808453 l 0.02508,1.434293 c 0.01393,0.788516 -2.03e-4,1.547216 -0.02508,1.685776 l -0.04807,0.251623 H 23.04349 c -1.357245,0 -1.777314,-0.02229 -1.806781,-0.09864 -0.02578,-0.05434 -0.02578,-0.813177 -0.01742,-1.685985 z M 9.2088288,18.408793 h 1.9677722 1.967494 v 4.4181 l -0.007,4.422071 -1.500194,-0.0084 c -1.6471132,-0.007 -1.9597612,-0.062 -2.2320042,-0.408156 -0.168515,-0.213447 -0.174297,-0.313832 -0.213309,-4.069506 -0.0202,-2.117757 -0.02369,-3.963688 -0.01184,-4.102248 z m -3.65515,2.76e-4 c 1.493715,0 1.506951,0 1.551744,0.174367 0.02508,0.09593 0.02856,1.925974 0.01672,4.066859 -0.02369,3.775807 -0.02996,3.898971 -0.192828,4.108239 -0.09175,0.118566 -0.294256,0.276562 -0.449396,0.350893 v 0 c -0.226335,0.113132 -0.484367,0.137654 -1.309387,0.129294 -0.565176,0 -1.082772,-0.02508 -1.150833,-0.0418 -0.346852,-0.107838 -0.506102,-0.236645 -0.656853,-0.529439 -0.156881,-0.307841 -0.165241,-0.474196 -0.165032,-3.84338 0,-3.926279 -0.007,-3.876052 0.5665,-4.237185 0.265138,-0.165241 0.356745,-0.175969 1.786579,-0.175969 z m 9.7278172,0 1.911276,0.01602 1.910857,0.01672 0.0209,4.398595 0.0216,4.407581 h -1.932383 -1.932453 v -4.419492 z m 7.815637,0.01463 1.761779,0.01672 0.0209,1.821271 c 0.01254,1.001894 0.007,1.900199 -0.0209,1.995916 v 0 c -0.04528,0.174297 -0.04807,0.174227 -1.808314,0.174227 h -1.763102 l -0.0209,-1.945269 c -0.01672,-1.069955 -0.007,-1.974181 0.0209,-2.017024 0.02717,-0.03623 0.795343,-0.05991 1.808383,-0.04807 z m -1.81528,5.947692 h 1.808662 1.808105 v 1.113564 c 0,1.024535 -0.01393,1.130492 -0.17792,1.326802 -0.09788,0.117243 -0.300247,0.259356 -0.449466,0.320172 v 0 c -0.193593,0.07767 -0.66159,0.106445 -1.630533,0.106445 H 21.281853 V 25.80436 Z" />
  </g>
</svg>
