<?xml version="1.0" encoding="UTF-8" standalone="no"?>
<svg
   id="svg8"
   version="1.1"
   viewBox="0 0 32 32"
   height="32"
   width="32"
   xmlns="http://www.w3.org/2000/svg"
   xmlns:svg="http://www.w3.org/2000/svg"
   xmlns:rdf="http://www.w3.org/1999/02/22-rdf-syntax-ns#"
   xmlns:cc="http://creativecommons.org/ns#"
   xmlns:dc="http://purl.org/dc/elements/1.1/">
  <defs
     id="defs2" />
  <metadata
     id="metadata5">
    <rdf:RDF>
      <cc:Work
         rdf:about="">
        <dc:format>image/svg+xml</dc:format>
        <dc:type
           rdf:resource="http://purl.org/dc/dcmitype/StillImage" />
      </cc:Work>
    </rdf:RDF>
  </metadata>
  <g
     id="layer1">
    <path
       style="fill:#7137c8;fill-opacity:1;stroke-width:0.376297"
       d="m 10.239193,31.655078 c -2.1985899,-0.90559 -3.8801899,-2.02575 -5.4986799,-3.66283 -4.53919003,-4.59135 -5.94165,-11.57331 -3.56345,-17.74014 0.80012,-2.0747804 1.85928,-3.6964704 3.56929,-5.4648804 2.20419,-2.27949 4.91752,-3.78862998 7.9813999,-4.43916998 4.58664,-0.97386 9.24821,0.11436 12.9854,3.03136998 2.51513,1.96318 4.694,5.15323 5.55752,8.1367004 1.50628,5.20426 0.5383,10.65492 -2.64785,14.91016 -1.16516,1.55614 -3.2527,3.38415 -4.90645,4.29648 -0.83753,0.46205 -2.30614,1.11817 -2.75209,1.22951 -0.34179,0.0854 -0.86322,-0.18149 -0.92828,-0.47504 -0.0271,-0.12222 -0.0629,-1.54387 -0.0796,-3.15927 -0.029,-2.8004 -0.041,-2.96255 -0.2587,-3.48466 -0.12561,-0.30119 -0.33683,-0.6902 -0.46939,-0.86446 -0.28087,-0.36934 -0.29491,-0.35971 0.76599,-0.52554 0.85931,-0.13434 2.07399,-0.53445 2.82455,-0.93047 0.7792,-0.41107 1.99946,-1.63158 2.41086,-2.41138 0.17411,-0.33005 0.43741,-1.00208 0.58507,-1.49345 0.22852,-0.7605 0.27552,-1.13089 0.31586,-2.49007 0.0369,-1.24607 0.0132,-1.73036 -0.10849,-2.20517 -0.19717,-0.76972 -0.6841,-1.80491 -1.11357,-2.36759 l -0.33216,-0.43515 0.1413,-0.5308 c 0.25205,-0.9469904 0.10864,-2.9883604 -0.2581,-3.6736304 -0.26615,-0.49732 -2.14519,0.0722 -3.86825,1.17257 l -0.53645,0.34255 -1.10632,-0.22988 c -1.59414,-0.33126 -4.30231,-0.33126 -5.89645,0 l -1.10631,0.22988 -0.53645,-0.34255 c -1.23098,-0.78608 -2.6921799,-1.36513 -3.4448099,-1.36513 -0.38977,0 -0.47429,0.13694 -0.67587,1.09514 -0.18736,0.89077 -0.1898,2.0793 -0.006,2.7710504 l 0.1413,0.5308 -0.33216,0.43515 c -0.43199,0.56595 -0.89476,1.55287 -1.10059,2.34723 -0.21445,0.82759 -0.21193,2.81007 0.005,3.90762 0.65562,3.31792 2.54072,5.01261 6.3905699,5.74518 l 0.61807,0.11763 -0.23688,0.31142 c -0.28587,0.37592 -0.65081,1.27388 -0.65081,1.60145 0,0.57754 -2.2780199,0.83906 -3.1859899,0.36576 -0.60064,-0.31312 -1.02142,-0.72614 -1.55512,-1.52641 -0.66251,-0.99346 -1.42959,-1.53725 -2.30824,-1.63637 -0.55116,-0.0622 -0.87809,0.11432 -0.7769,0.41942 0.035,0.10537 0.28745,0.34838 0.56113,0.54003 0.63368,0.44373 1.21973,1.20998 1.66474,2.17657 0.47771,1.0376 0.86721,1.55351 1.46263,1.93718 0.89761,0.5784 1.39831,0.69427 2.7988099,0.64764 l 1.23938,-0.0412 v 1.46489 c 0,0.80572 -0.0279,1.53747 -0.0618,1.62609 -0.0658,0.1714 -0.53852,0.4537 -0.75463,0.45069 -0.0711,0 -0.50416,-0.1562 -0.96222,-0.34488 z"
       id="path53" />
  </g>
</svg>
