<?xml version="1.0" encoding="UTF-8" standalone="no"?>
<svg
   id="svg8"
   version="1.1"
   viewBox="0 0 32 32"
   height="32"
   width="32"
   xmlns="http://www.w3.org/2000/svg"
   xmlns:svg="http://www.w3.org/2000/svg"
   xmlns:rdf="http://www.w3.org/1999/02/22-rdf-syntax-ns#"
   xmlns:cc="http://creativecommons.org/ns#"
   xmlns:dc="http://purl.org/dc/elements/1.1/">
  <defs
     id="defs2" />
  <metadata
     id="metadata5">
    <rdf:RDF>
      <cc:Work
         rdf:about="">
        <dc:format>image/svg+xml</dc:format>
        <dc:type
           rdf:resource="http://purl.org/dc/dcmitype/StillImage" />
      </cc:Work>
    </rdf:RDF>
  </metadata>
  <g
     id="layer1">
    <path
       style="fill:#7137c8;fill-opacity:1;stroke-width:0.133979"
       d="m 15.867811,31.076902 c -0.59201,-0.09696 -1.07308,-0.583263 -1.17345,-1.186214 -0.0309,-0.185564 -0.0297,-0.848717 0.005,-2.743843 0.0499,-2.723391 0.0369,-5.447255 0.0286,-8.170934 l 0.43695,-0.352515 c 0.24033,-0.19386 1.03514,-0.832386 1.76627,-1.418902 0.73112,-0.586518 2.27547,-1.828836 3.43186,-2.760673 1.15638,-0.931837 2.18169,-1.734031 2.27848,-1.782654 0.39426,-0.198034 0.90816,-0.191576 1.28882,0.01628 0.26755,0.146052 7.61739,5.903104 7.76273,6.080478 0.15874,0.193702 0.25719,0.415838 0.29363,0.662497 0.0386,0.260939 -0.0152,9.966845 -0.0573,10.355091 -0.0754,0.694789 -0.5405,1.195297 -1.21184,1.304225 -0.28735,0.04663 -14.56441,0.04392 -14.84982,-0.0029 z m 13.19993,-3.371737 c 0.0113,-0.277821 0.0287,-2.044512 0.0389,-3.925961 l 0.0186,-3.420804 -2.85881,-2.233253 c -1.57235,-1.2283 -2.88761,-2.253653 -2.92284,-2.278543 -0.057,-0.04035 -0.36267,0.194884 -2.80389,2.157852 -1.50693,1.211732 -2.78199,2.245067 -2.83344,2.29629 l -0.0936,0.09312 -0.0242,3.908214 -0.0242,3.908237 h 5.74159 5.74157 z M 0.95555106,19.385921 c -0.47084,-0.169496 -0.82529,-0.569163 -0.93506,-1.054286 -0.028,-0.123709 -0.0275,-1.602341 0.003,-5.342082 0.0378,-4.8434876 0.0444,-5.1842136 0.10509,-5.3792816 0.14072,-0.452096 0.0194,-0.344244 3.89632004,-3.464624 1.98137,-1.594752 3.67332,-2.950619 3.75988,-3.013026 0.38289,-0.27614002 0.95796,-0.32534102 1.39504,-0.119377 0.25204,0.118774 7.4813699,5.742167 7.7588199,6.035267 0.091,0.09614 0.21066,0.266848 0.26585,0.37932 l 0.1004,0.204493 0.0115,2.038316 c 0.006,1.1210506 0,2.4729796 -0.0129,3.0042846 l -0.0244,0.965968 h -0.12116 c -0.1837,0 -0.54081,0.133028 -0.73927,0.275405 -0.0975,0.06991 -0.57604,0.448394 -1.06347,0.841024 -0.48741,0.39263 -0.9043,0.72456 -0.9264,0.737661 -0.0287,0.01707 -0.0365,-0.03933 -0.0274,-0.197325 0.007,-0.12161 0.02,-1.650019 0.0288,-3.396468 l 0.016,-3.1753826 -0.57345,-0.44624 c -0.31541,-0.245423 -1.62586,-1.269255 -2.91215,-2.275155 -1.2862999,-1.005899 -2.3506699,-1.824818 -2.3653199,-1.819777 -0.0147,0.005 -1.29509,1.030106 -2.84547,2.277912 l -2.8189,2.268696 v 0.995581 c -1.4e-4,0.5475566 -0.0108,2.3141676 -0.0236,3.9258026 l -0.0236,2.930274 5.09259,0.0089 5.0925899,0.0089 -0.35617,0.281602 c -0.80059,0.632935 -0.89256,0.838005 -0.85866,1.914267 l 0.0207,0.657769 -5.3670799,-0.0026 c -5.14302,-0.0026 -5.37471,-0.0039 -5.55038004,-0.06726 z"
       id="path17" />
  </g>
</svg>
