<?xml version="1.0" encoding="UTF-8" standalone="no"?>
<svg
   id="svg8"
   version="1.1"
   viewBox="0 0 32 32"
   height="32"
   width="32"
   xmlns="http://www.w3.org/2000/svg"
   xmlns:svg="http://www.w3.org/2000/svg"
   xmlns:rdf="http://www.w3.org/1999/02/22-rdf-syntax-ns#"
   xmlns:cc="http://creativecommons.org/ns#"
   xmlns:dc="http://purl.org/dc/elements/1.1/">
  <defs
     id="defs2" />
  <metadata
     id="metadata5">
    <rdf:RDF>
      <cc:Work
         rdf:about="">
        <dc:format>image/svg+xml</dc:format>
        <dc:type
           rdf:resource="http://purl.org/dc/dcmitype/StillImage" />
      </cc:Work>
    </rdf:RDF>
  </metadata>
  <g
     id="layer1">
    <path
       style="fill:#7137c8;fill-opacity:1;stroke-width:0.127499"
       d="m 16.281985,31.949811 c -0.699949,-0.139649 -1.522417,-0.629606 -2.209382,-1.316144 -0.525495,-0.52513 -0.76895,-0.880193 -1.087197,-1.585505 -0.445216,-0.986743 -0.642224,-2.101187 -0.553961,-3.134743 0.0679,-0.795526 0.197983,-1.346317 0.464357,-1.966536 l 0.123861,-0.28844 -0.06985,-0.05425 c -0.0384,-0.02987 -0.699034,-0.550974 -1.467922,-1.157722 L 10.083944,21.343182 9.6566483,21.559573 C 9.2074086,21.787118 8.6991032,21.968033 8.2194469,22.07117 7.8103766,22.15919 6.0063468,22.16224 5.6181842,22.07727 4.8796461,21.912382 3.9625753,21.52489 3.3636296,21.124658 1.9220395,20.161322 0.7629765,18.11719 0.37847116,15.860019 0.15775241,14.564234 0.16342131,13.112464 0.39431988,11.830455 0.65935295,10.358753 1.2599445,8.9262447 2.0618709,7.8531894 2.6926352,7.0092039 5.4949892,4.507481 7.3591817,3.1242249 9.913265,1.2290671 11.942524,0.22348933 13.623729,0.01977711 c 0.871538,-0.10563533 1.813234,0.21206315 2.813814,0.94913334 1.113346,0.82021295 1.890647,2.14921895 2.196642,3.75599775 0.04572,0.2391881 0.05852,0.4877025 0.05791,1.1328522 0,0.7287193 -0.0098,0.8684286 -0.07674,1.1807021 -0.14934,0.6953767 -0.439975,1.4426264 -0.985219,2.5325661 l -0.296486,0.5928504 1.568743,1.303283 1.568742,1.303344 0.384628,-0.332389 c 0.928774,-0.802658 1.933255,-1.341929 3.022219,-1.622566 0.351529,-0.09064 0.497821,-0.110024 0.941819,-0.124837 0.874829,-0.02926 1.886075,0.09155 2.520314,0.300875 0.66307,0.218829 1.597818,0.756332 2.12892,1.224224 0.644175,0.567432 1.225261,1.431533 1.634026,2.429735 0.292341,0.713968 0.528604,1.647436 0.636129,2.513244 0.05852,0.473012 0.05852,2.136296 -1.23e-4,2.563775 -0.254731,1.852672 -0.765475,3.312305 -1.617141,4.621561 -0.512267,0.787602 -0.968333,1.293348 -1.63561,1.814027 -3.820427,2.980769 -7.598308,5.097315 -10.099726,5.658347 -0.803877,0.180307 -1.616775,0.232544 -2.104295,0.13526 z m 1.186797,-1.956113 c 1.358448,-0.204809 3.161746,-0.979001 5.37448,-2.307519 1.403433,-0.842584 4.326904,-2.902625 4.830516,-3.40386 1.05355,-1.048551 1.816099,-2.718357 2.090885,-4.578588 0.08576,-0.580476 0.08485,-1.965744 0,-2.530006 -0.269361,-1.757033 -0.97059,-3.106764 -1.956722,-3.766299 -0.855385,-0.572187 -1.495841,-0.750176 -2.702814,-0.75109 -0.565177,0 -0.628205,0.0061 -0.910793,0.09155 -0.466124,0.141233 -1.255372,0.548474 -1.669867,0.861662 -0.194813,0.147207 -0.389565,0.305751 -0.432843,0.352382 l -0.07869,0.08467 0.719637,0.597422 c 0.820579,0.681235 0.898967,0.760537 1.049099,1.061473 0.10143,0.203225 0.108988,0.242175 0.108135,0.556643 0,0.432843 -0.07936,0.644906 -0.342385,0.928957 -0.425467,0.459602 -1.072141,0.585597 -1.609034,0.313554 -0.09454,-0.04815 -0.480693,-0.343117 -0.858006,-0.656 -0.377373,-0.312883 -0.698973,-0.568895 -0.714577,-0.568895 -0.02926,0 -1.437628,2.013899 -1.465851,2.096127 -0.0098,0.02865 0.190058,0.21316 0.524093,0.484533 0.687575,0.558532 0.819421,0.691598 0.951754,0.960349 0.10143,0.206089 0.107769,0.240773 0.107769,0.590717 0,0.338728 -0.0085,0.388833 -0.0943,0.563774 -0.307397,0.62601 -0.990521,0.936211 -1.632441,0.741215 -0.268141,-0.08144 -0.361037,-0.143793 -0.995703,-0.668739 l -0.462284,-0.38225 -0.149523,0.210661 c -0.169638,0.239127 -1.088172,1.561367 -1.117126,1.608181 -0.01036,0.01707 0.290513,0.274542 0.668801,0.572613 0.378288,0.29801 0.737375,0.598397 0.798025,0.667398 0.297461,0.338789 0.406449,0.847399 0.274725,1.281217 -0.254793,0.838744 -1.175582,1.224285 -1.961355,0.821128 -0.06553,-0.03353 -0.361403,-0.252903 -0.657585,-0.487337 -0.614306,-0.4863 -0.545609,-0.486057 -0.660144,0 -0.307092,1.29798 0.0073,2.799915 0.779007,3.723692 0.295877,0.354089 0.852946,0.765962 1.241779,0.918046 0.193777,0.07577 0.516352,0.0807 0.955046,0.01463 z m -2.335864,-9.657496 0.639238,-0.919265 -0.951084,-0.781811 c -0.523118,-0.429978 -1.061413,-0.872452 -1.196307,-0.983269 -0.134833,-0.110816 -0.250221,-0.195422 -0.256377,-0.188046 -0.0061,0.0073 -0.17482,0.317088 -0.374692,0.688184 -0.199872,0.371095 -0.461979,0.824175 -0.582488,1.006858 -0.184572,0.279784 -0.211819,0.339215 -0.17293,0.37719 0.13209,0.128981 2.203653,1.736857 2.227425,1.728872 0.01524,-0.0061 0.315565,-0.42309 0.667215,-0.928713 z M 8.0462682,20.099513 c 0.1366615,-0.0384 0.2607053,-0.08229 0.2755785,-0.09777 0.014629,-0.01524 -0.3702418,-0.340313 -0.85575,-0.721892 C 6.9151228,18.846884 6.5358596,18.523517 6.4569836,18.419649 6.1628138,18.032096 6.1084418,17.450644 6.3252594,17.010243 6.4652735,16.725826 6.6936117,16.498402 6.9712016,16.3668 c 0.2037123,-0.09649 0.2458932,-0.103928 0.5904729,-0.103928 0.3303162,0 0.3913933,0.0098 0.5565819,0.0882 0.1024656,0.04876 0.7049466,0.498247 1.3449152,1.003566 0.6376524,0.50349 1.1650364,0.915425 1.1719854,0.915425 0.06181,0 1.204596,-2.046875 1.172168,-2.099419 -0.0085,-0.01402 -0.633446,-0.533236 -1.388498,-1.154003 C 9.4351322,14.207889 9.0142976,13.841 8.9342634,13.72232 8.460215,13.019385 8.7202498,12.08226 9.4948683,11.701839 c 0.1750023,-0.08595 0.2250465,-0.0943 0.5638357,-0.0943 0.352077,0 0.383347,0.0061 0.590351,0.109597 0.14361,0.07205 0.611502,0.432843 1.364665,1.05227 0.630337,0.518485 1.150955,0.937734 1.156929,0.931761 0.0061,-0.0061 0.297157,-0.538844 0.647039,-1.184116 L 14.453817,11.343727 13.406729,10.47097 C 12.830885,9.9909483 12.314107,9.5417086 12.258455,9.4727682 12.202985,9.403767 12.117526,9.2638748 12.069067,9.1617748 11.991288,8.998293 11.980804,8.9342292 11.980804,8.6220775 c 0,-0.3287313 0.0079,-0.3706684 0.108317,-0.5827925 0.328122,-0.6926947 1.167048,-0.9883274 1.844748,-0.6500261 0.09472,0.047545 0.544147,0.3965136 0.99869,0.7760204 0.454604,0.379568 0.835269,0.6907443 0.845936,0.6915368 0.02621,0 0.469843,-0.9205453 0.616196,-1.2805467 0.299229,-0.7362167 0.3778,-1.1672918 0.350431,-1.9228315 C 16.726226,5.1259927 16.674231,4.8321278 16.518491,4.3672835 16.173607,3.3378723 15.506635,2.5569753 14.619798,2.1442477 14.271317,1.9820459 14.051025,1.9388287 13.772886,1.977962 11.751856,2.2623788 8.5377498,4.3661253 4.7785825,7.8650141 3.9763511,8.6116543 3.7163773,8.8838802 3.5075449,9.195544 c -0.6386885,0.953461 -1.0333124,2.013594 -1.2492157,3.356558 -0.074853,0.465454 -0.085703,2.093263 -0.017068,2.546952 0.2506478,1.654872 0.7560882,2.873489 1.5917229,3.837861 0.3912103,0.451434 0.8555061,0.75621 1.5760573,1.03447 0.5184239,0.200238 0.6734939,0.220719 1.5790442,0.208589 0.6931824,-0.0091 0.8453875,-0.02073 1.0581211,-0.08046 z M 18.098754,16.065194 18.84448,14.990432 17.424407,13.810583 c -0.78108,-0.648929 -1.431594,-1.16717 -1.445674,-1.151687 -0.04754,0.05242 -1.248545,2.292281 -1.246351,2.324221 0,0.02743 2.60431,2.178417 2.616197,2.16263 0,-0.0061 0.340008,-0.489471 0.750175,-1.080553 z"
       id="path26" />
  </g>
</svg>
