<?xml version="1.0" encoding="UTF-8" standalone="no"?>
<svg
   id="svg8"
   version="1.1"
   viewBox="0 0 32 32"
   height="32"
   width="32"
   xml:space="preserve"
   xmlns="http://www.w3.org/2000/svg"
   xmlns:svg="http://www.w3.org/2000/svg"
   xmlns:rdf="http://www.w3.org/1999/02/22-rdf-syntax-ns#"
   xmlns:cc="http://creativecommons.org/ns#"
   xmlns:dc="http://purl.org/dc/elements/1.1/"><defs
     id="defs2" /><metadata
     id="metadata5"><rdf:RDF><cc:Work
         rdf:about=""><dc:format>image/svg+xml</dc:format><dc:type
           rdf:resource="http://purl.org/dc/dcmitype/StillImage" /></cc:Work></rdf:RDF></metadata><g
     id="layer1"><path
       style="fill:#7137c8;fill-opacity:1;stroke-width:0.143054"
       d="M 4.4400092,31.976339 C 2.8411913,31.832152 1.4427479,30.716957 0.94372192,29.188191 c -0.2184578,-0.669224 -0.206558,0.09055 -0.206558,-13.182951 0,-10.7658012 0.00687,-12.2486157 0.057851,-12.562946 C 1.0936385,1.6009299 2.5675075,0.22067978 4.4368761,0.03176558 4.7228446,0.00290908 8.2430691,-0.00561052 16.293153,0.00345878 l 11.449566,0.012366 0.333458,0.082722 c 0.77227,0.1917312 1.419591,0.5457736 1.954853,1.06919022 0.486755,0.475982 0.791426,0.9536403 1.013978,1.5896937 0.233229,0.6665588 0.21773,-0.2796749 0.21773,13.3041883 v 12.452564 l -0.100172,0.36237 c -0.215558,0.779415 -0.574218,1.413929 -1.090214,1.92873 -0.564586,0.563294 -1.212031,0.911414 -2.08358,1.120308 -0.269713,0.06473 -0.856421,0.0683 -11.752354,0.07393 -6.3076704,0.0028 -11.616012,-0.0068 -11.7963242,-0.02364 z M 27.698664,29.130217 c 0.398909,-0.186881 0.621956,-0.43223 0.743922,-0.81833 0.07544,-0.238754 0.07599,-0.330367 0.07599,-12.289842 0,-8.5265461 -0.01237,-12.1053494 -0.04109,-12.2409751 -0.08478,-0.395431 -0.475085,-0.8153213 -0.886223,-0.9534617 -0.125457,-0.042186 -2.111846,-0.050842 -11.582016,-0.050842 -10.8509158,0 -11.4402216,0.00275 -11.6198742,0.067194 C 4.1294715,2.9361637 3.8767293,3.1303684 3.7319106,3.3489911 3.4802677,3.7289083 3.4984611,2.689083 3.509138,16.081998 l 0.00961,12.167681 0.1014096,0.216508 c 0.1791717,0.38228 0.5656846,0.678582 0.9767805,0.748854 0.09399,0.01607 5.2805015,0.02679 11.5257189,0.02391 l 11.354929,-0.0055 z M 5.7519516,27.436997 C 5.448312,27.365955 5.2043917,27.169305 5.0464227,26.868125 l -0.089317,-0.170324 v -5.45037 -5.45037 l 0.1128154,-0.203589 c 0.1287551,-0.232626 0.3756023,-0.438593 0.6023598,-0.502778 0.1162507,-0.03284 2.7710672,-0.04479 10.5271581,-0.04727 l 10.371759,-0.0028 0.188324,0.09687 c 0.225149,0.115701 0.446411,0.390745 0.51333,0.638018 0.03559,0.131503 0.04534,0.80639 0.04012,2.785179 -0.0041,1.436398 -0.0068,3.841413 -0.0083,5.344467 l -0.0013,2.732853 -0.11254,0.225274 c -0.181289,0.362796 -0.460854,0.535688 -0.90148,0.557522 -0.545416,0.02707 -20.4238553,0.04328 -20.5371379,0.01677 z M 11.145544,23.80452 c 0,-0.873103 -0.01237,-1.593734 -0.02844,-1.6014 -0.01552,-0.0083 -0.952376,-0.0068 -2.0817258,0.0013 l -2.0533498,0.01567 v 1.585695 1.585709 h 2.0817391 2.0817395 z m 14.117957,-0.0213 v -1.608725 l -6.027569,0.0096 -6.027571,0.0096 -0.0096,1.599148 -0.0096,1.599148 h 6.03745 6.037451 z M 11.145544,18.616854 V 17.102848 H 9.0638044 6.9820653 v 1.514006 1.513981 h 2.0817391 2.0817396 z m 14.117957,-0.01896 v -1.532901 l -3.510563,2.7e-5 c -1.930821,1.4e-5 -4.647486,0.01097 -6.037039,0.02515 l -2.526473,0.02515 v 1.507782 1.507769 h 6.037038 6.037037 z M 5.7601826,12.103189 c -0.3199367,-0.0753 -0.5526304,-0.273546 -0.7006233,-0.596809 -0.128343,-0.28043 -0.1066319,-0.643542 0.054277,-0.903649 0.1294422,-0.209293 0.3749702,-0.407564 0.572885,-0.46253 0.088768,-0.0246 0.8709182,-0.0393 2.1117636,-0.0393 1.6222604,-1.51e-4 2.0038267,0.0096 2.1577287,0.05538 0.7408584,0.219996 0.9788694,1.142692 0.4350604,1.686486 -0.307501,0.307515 -0.264532,0.302417 -2.516965,0.298074 -1.0840033,-0.0028 -2.0353351,-0.01896 -2.1140722,-0.03752 z m 7.1198324,-0.0083 c -0.38676,-0.147265 -0.651444,-0.533503 -0.65051,-0.949271 0.0013,-0.410986 0.205596,-0.739194 0.573697,-0.91996 l 0.215888,-0.106081 6.548032,-0.02789 c 3.601394,-0.01525 6.633873,-0.01883 6.738843,-0.0083 0.244704,0.02583 0.554197,0.201817 0.693739,0.394442 0.397822,0.54918 0.151153,1.354594 -0.480818,1.569933 -0.246038,0.08382 -13.422846,0.128755 -13.638871,0.04645 z M 7.1902309,6.8869967 C 5.6159274,6.8652856 5.5577471,6.8619877 5.4113069,6.7827009 5.0600814,6.5928385 4.864654,6.262486 4.8633211,5.856378 4.8619469,5.4018874 5.1426525,5.0318502 5.592746,4.8953038 c 0.1733866,-0.052629 0.4334391,-0.056889 2.1652444,-0.035315 1.0824917,0.013741 2.0313362,0.040399 2.1085342,0.059774 0.3287314,0.082997 0.6538484,0.4814236 0.6981644,0.8555693 0.04823,0.4068231 -0.184709,0.825298 -0.5683374,1.0212615 -0.235016,0.1200983 -0.358316,0.1239458 -2.8061207,0.09028 z M 12.887449,6.8467349 C 12.740033,6.7963047 12.628661,6.7218273 12.502186,6.589307 12.021203,6.0851144 12.157516,5.3151391 12.786918,4.9807191 l 0.156485,-0.083135 3.841755,-0.028719 c 2.112959,-0.015803 5.16175,-0.024596 6.775107,-0.019513 l 2.93335,0.00961 0.177001,0.1040208 c 0.608337,0.3576151 0.700554,1.1645954 0.186152,1.6292958 -0.210695,0.1903846 -0.387104,0.2556141 -0.741641,0.2743159 -0.166544,0.00825 -3.164244,0.02391 -6.661562,0.033665 -6.14242,0.017039 -6.365824,0.015253 -6.566116,-0.053178 z"
       id="path63" /></g></svg>
