<?xml version="1.0" encoding="UTF-8" standalone="no"?>
<svg
   id="svg8"
   version="1.1"
   viewBox="0 0 32 32"
   height="32"
   width="32"
   xmlns="http://www.w3.org/2000/svg"
   xmlns:svg="http://www.w3.org/2000/svg"
   xmlns:rdf="http://www.w3.org/1999/02/22-rdf-syntax-ns#"
   xmlns:cc="http://creativecommons.org/ns#"
   xmlns:dc="http://purl.org/dc/elements/1.1/">
  <defs
     id="defs2" />
  <metadata
     id="metadata5">
    <rdf:RDF>
      <cc:Work
         rdf:about="">
        <dc:format>image/svg+xml</dc:format>
        <dc:type
           rdf:resource="http://purl.org/dc/dcmitype/StillImage" />
      </cc:Work>
    </rdf:RDF>
  </metadata>
  <g
     id="layer1">
    <path
       style="fill:#7137c8;fill-opacity:1;stroke-width:0.172549"
       d="M 4.8104798,31.24039 C 3.8750224,31.130734 3.1132862,30.744238 2.4514124,30.043425 2.0559339,29.624673 1.7385621,29.080303 1.5722106,28.535322 1.4049427,27.987372 1.3816119,27.339493 1.3953107,23.621501 l 0.012983,-3.538143 1.3795448,-0.01203 1.3795259,-0.01212 0.012983,3.824146 c 0.012219,3.629757 0.017279,3.83226 0.09802,3.98393 0.119117,0.223638 0.2946996,0.402476 0.508381,0.517784 l 0.1826086,0.09854 h 11.025305 11.025315 l 0.189109,-0.101151 c 0.25368,-0.135661 0.497785,-0.430207 0.559415,-0.675019 0.03465,-0.13777 0.0504,-1.346439 0.0504,-3.877872 v -3.677707 h 1.394551 1.394542 l -0.01499,3.937602 c -0.0148,3.910596 -0.01566,3.940103 -0.116673,4.300375 -0.392672,1.400146 -1.402962,2.399228 -2.806964,2.775834 l -0.375537,0.100731 -11.070964,0.0067 c -6.104814,0.0038 -11.2241168,-0.011 -11.4123958,-0.03305 z M 8.3704929,25.122988 C 7.7568081,25.070484 7.2995373,24.888544 6.7561696,24.480827 5.3025846,23.390149 4.6339425,20.839051 5.1956198,18.526865 c 0.2150846,-0.885349 0.58644,-1.609684 1.1129206,-2.17076 0.4155636,-0.442875 0.860224,-0.742615 1.3717743,-0.92467 0.3695321,-0.131517 0.4336537,-0.140071 1.0554145,-0.140806 0.5675577,-6.11e-4 0.7107883,0.01441 1.0043711,0.106077 0.4932407,0.153951 0.9136447,0.388854 1.2539177,0.70066 0.40282,0.369093 1.053515,1.360701 0.952555,1.45159 -0.102736,0.0925 -1.716373,1.054021 -1.748448,1.041868 -0.02033,-0.0076 -0.127594,-0.147564 -0.2383102,-0.310775 -0.2416993,-0.356368 -0.5348239,-0.567138 -0.8917263,-0.641235 -0.5195978,-0.107872 -0.9616616,0.03045 -1.3494364,0.422141 -0.5041807,0.509317 -0.7303389,1.167591 -0.7340523,2.136537 -0.00286,0.669444 0.079329,1.076836 0.3178204,1.580959 0.1548102,0.327262 0.5268433,0.725996 0.8127892,0.871145 0.5934755,0.301239 1.4771449,0.112425 1.8247494,-0.389903 0.1332742,-0.192594 0.2566682,-0.517364 0.2566682,-0.675516 V 21.47579 H 9.4433482 8.6900699 v -0.935896 -0.935897 h 1.8261341 1.826143 l -1.34e-4,0.559253 c 0,2.214548 -0.855422,3.981409 -2.259711,4.670175 -0.5342223,0.262032 -1.0381358,0.347251 -1.7120091,0.289563 z M 13.20975,20.220317 v -4.770782 h 1.342992 1.343003 l 0.05193,0.239685 c 0.408852,1.887821 1.200487,5.753617 1.241841,6.064201 0.02969,0.223352 0.059,0.401159 0.06501,0.395135 0.0057,-0.0057 0.03456,-0.185539 0.06348,-0.398925 0.02893,-0.213385 0.328464,-1.706405 0.665711,-3.317817 0.337247,-1.611412 0.613169,-2.941641 0.613169,-2.956056 0,-0.01441 0.606039,-0.02625 1.346773,-0.02625 h 1.346773 v 4.770782 4.770782 H 20.3501 19.409764 l 0.01585,-3.32492 0.01585,-3.32492 -0.143011,0.939534 c -0.10623,0.697996 -0.269069,1.441251 -0.633427,2.891209 l -0.490434,1.951685 h -0.924594 -0.924603 l -0.507102,-2.042994 c -0.390094,-1.571604 -0.53407,-2.23786 -0.623985,-2.887572 -0.06434,-0.464526 -0.121112,-0.860052 -0.126239,-0.878954 -0.0048,-0.0189 -0.0029,1.475675 0.0057,3.321283 l 0.01499,3.355649 h -0.939496 -0.939505 z m 9.358955,0 v -4.770782 h 0.935906 0.935887 v 3.675101 3.675102 h 1.255473 1.255464 v 1.09568 1.095681 h -2.19136 -2.19137 z M 15.586592,9.6884434 c -0.334545,-0.128453 -0.645368,-0.4436 -0.772418,-0.7831765 -0.09374,-0.2506918 -0.09785,-0.334173 -0.09785,-2.0174674 0,-0.9657664 -0.01193,-1.7559407 -0.02654,-1.7559407 -0.0147,0 -0.502529,0.395469 -1.084263,0.8788295 -0.58174,0.4833605 -1.1707,0.9370898 -1.308786,1.0082946 -0.230129,0.1186493 -0.283778,0.127995 -0.642351,0.1118811 -0.460135,-0.020715 -0.694312,-0.1318421 -0.993241,-0.4714279 -0.424241,-0.4819667 -0.442293,-1.246815 -0.04095,-1.734099 0.195429,-0.2372509 4.686757,-3.96953408 4.93195,-4.09842638 0.156261,-0.082192 0.266997,-0.1006071 0.60347,-0.1006071 0.351395,0 0.444021,0.016801 0.628682,0.114134 0.252725,0.1331881 4.582675,3.72403538 4.781731,3.96549608 0.314948,0.3821043 0.362487,1.0451905 0.108407,1.5124371 -0.14682,0.2700419 -0.46992,0.553267 -0.737193,0.6462467 -0.264429,0.092025 -0.772791,0.073219 -1.019731,-0.037612 -0.114793,-0.051549 -0.704393,-0.5066053 -1.310192,-1.011292 l -1.101475,-0.9176251 -0.01384,1.8815969 -0.01384,1.8815968 -0.112969,0.2282683 c -0.329706,0.666236 -1.087919,0.964133 -1.778804,0.698865 z"
       id="path55" />
  </g>
</svg>
