<?xml version="1.0" encoding="UTF-8" standalone="no"?>
<svg
   sodipodi:docname="szablon eksportu.svg"
   inkscape:version="1.4 (86a8ad7, 2024-10-11)"
   id="svg8"
   version="1.1"
   viewBox="0 0 32 32"
   height="32"
   width="32"
   xmlns:inkscape="http://www.inkscape.org/namespaces/inkscape"
   xmlns:sodipodi="http://sodipodi.sourceforge.net/DTD/sodipodi-0.dtd"
   xmlns="http://www.w3.org/2000/svg"
   xmlns:svg="http://www.w3.org/2000/svg"
   xmlns:rdf="http://www.w3.org/1999/02/22-rdf-syntax-ns#"
   xmlns:cc="http://creativecommons.org/ns#"
   xmlns:dc="http://purl.org/dc/elements/1.1/">
  <defs
     id="defs2" />
  <sodipodi:namedview
     inkscape:window-maximized="1"
     inkscape:window-y="-11"
     inkscape:window-x="214"
     inkscape:window-height="2126"
     inkscape:window-width="3840"
     units="px"
     showgrid="false"
     inkscape:document-rotation="0"
     inkscape:current-layer="layer1"
     inkscape:document-units="px"
     inkscape:cy="9.81742"
     inkscape:cx="26.705908"
     inkscape:zoom="15.839192"
     inkscape:pageshadow="2"
     inkscape:pageopacity="0.0"
     borderopacity="1.0"
     bordercolor="#666666"
     pagecolor="#ffffff"
     id="base"
     inkscape:pagecheckerboard="0"
     showguides="true"
     inkscape:guide-bbox="true"
     inkscape:showpageshadow="2"
     inkscape:deskcolor="#d1d1d1">
    <sodipodi:guide
       position="12.410714,19.758929"
       orientation="1,0"
       id="guide1048"
       inkscape:locked="false" />
  </sodipodi:namedview>
  <metadata
     id="metadata5">
    <rdf:RDF>
      <cc:Work
         rdf:about="">
        <dc:format>image/svg+xml</dc:format>
        <dc:type
           rdf:resource="http://purl.org/dc/dcmitype/StillImage" />
      </cc:Work>
    </rdf:RDF>
  </metadata>
  <g
     id="layer1"
     inkscape:groupmode="layer"
     inkscape:label="Warstwa 1">
    <path
       style="fill:#7137c8;fill-opacity:1;stroke-width:0.123374"
       d="m 5.5967817,31.897035 c -0.424685,-0.138595 -0.736545,-0.477659 -0.916193,-0.995877 -0.04452,-0.12801 -0.05382,-0.400745 -0.0641,-1.851083 l -0.01187,-1.700963 -0.512283,-0.02275 c -0.555908,-0.02473 -1.011655,-0.10219 -1.384949,-0.235492 -1.3880639,-0.49581 -2.42069191,-1.72525 -2.65326391,-3.159018 -0.07474,-0.460693 -0.07103,-5.327748 0.0049,-5.766728 0.253346,-1.474871 1.31550301,-2.696148 2.75129891,-3.163568 0.431906,-0.140573 0.8235,-0.196218 1.382327,-0.196366 h 0.481468 v -1.754532 c 0,-1.906134 0.0084,-2.010945 0.182516,-2.380084 0.11129,-0.236381 0.427009,-0.557986 0.649096,-0.661164 0.433093,-0.2013119 0.956356,-0.1171769 1.321092,0.212342 0.15096,0.136368 0.306173,0.370177 0.403762,0.60819 0.069,0.168222 0.07108,0.21813 0.087,2.065651 l 0.01632,1.893274 1.215936,0.0084 1.215984,0.0084 v -1.774168 c 0,-1.648584 0.0049,-1.791728 0.06326,-2.021629 0.08448,-0.33031 0.170744,-0.490223 0.3864993,-0.716414 0.718738,-0.7535109 1.859392,-0.3834329 2.146818,0.69653 0.03759,0.141858 0.0465,0.522076 0.04699,1.995068 v 1.819822 h 1.224097 1.224146 v -1.787177 c 0,-1.968012 0.0059,-2.030335 0.20057,-2.395961 0.511442,-0.9595719 1.760418,-0.9592249 2.244952,0 0.197356,0.390951 0.197999,0.399162 0.197999,2.377808 v 1.804786 h 1.224096 1.224097 v -1.804786 c 0,-1.989231 0,-2.003328 0.204873,-2.385376 0.506793,-0.9508169 1.727673,-0.9506189 2.234564,0 0.198839,0.373046 0.203638,0.429334 0.204133,2.402589 v 1.787177 h 1.224096 1.224098 v -1.826302 -1.826302 l 0.08211,-0.259925 c 0.168963,-0.534837 0.561349,-0.9013049 1.048307,-0.9791589 0.378239,-0.06044 0.716414,0.04897 1.010864,0.3275899 0.203587,0.192558 0.304292,0.347276 0.412171,0.633268 0.07187,0.19048 0.07306,0.220207 0.08324,2.06204 l 0.01039,1.86879 h 0.300436 c 1.928046,0 3.623124,1.442028 3.952693,3.360528 0.07726,0.449861 0.07914,5.358168 0,5.799324 -0.214519,1.229982 -1.015861,2.320877 -2.126094,2.894345 -0.555216,0.286734 -1.093468,0.424832 -1.813938,0.465293 l -0.383531,0.02176 v 1.620735 c 0,1.753544 -0.0079,1.843565 -0.181577,2.210626 -0.124448,0.263091 -0.371413,0.515447 -0.627926,0.641577 -0.199531,0.09813 -0.242612,0.106839 -0.527863,0.106542 -0.277138,0 -0.330755,-0.01039 -0.497344,-0.09462 -0.233364,-0.117771 -0.480627,-0.363401 -0.609823,-0.605865 -0.195377,-0.366567 -0.199036,-0.407423 -0.199036,-2.227543 v -1.657932 h -1.224098 -1.224096 v 1.64161 c 0,1.804242 -0.0049,1.839211 -0.201214,2.234467 -0.125436,0.250328 -0.385213,0.503181 -0.639252,0.622237 -0.163276,0.07652 -0.228269,0.08789 -0.497889,0.08715 -0.259975,0 -0.33585,-0.01335 -0.469251,-0.07894 -0.22629,-0.111142 -0.514854,-0.391049 -0.634503,-0.61556 -0.193942,-0.363795 -0.200966,-0.442194 -0.201461,-2.25064 V 27.338706 H 18.65833 17.434233 v 1.651898 c 0,1.792272 -0.0054,1.856226 -0.185731,2.212158 -0.116039,0.229011 -0.399212,0.514312 -0.62204,0.626739 -0.167777,0.08468 -0.220949,0.09482 -0.497939,0.09517 -0.268037,0 -0.335256,-0.01137 -0.495366,-0.08651 -0.335751,-0.157389 -0.601464,-0.462028 -0.752275,-0.862427 -0.07132,-0.189441 -0.07296,-0.226785 -0.08334,-1.915136 l -0.01039,-1.721888 h -1.222514 -1.222464 v 1.675195 c 0,1.843713 0,1.830753 -0.206951,2.223881 -0.133005,0.251221 -0.361768,0.477856 -0.599435,0.593896 -0.167035,0.08156 -0.225698,0.09245 -0.499818,0.09289 -0.285399,0 -0.328283,-0.0084 -0.527912,-0.106444 -0.257403,-0.126624 -0.489975,-0.365033 -0.6245133,-0.640242 -0.174058,-0.35613 -0.184248,-0.478994 -0.184891,-2.231499 v -1.607678 h -1.224101 -1.224096 v 1.672969 c 0,1.029116 -0.01385,1.729108 -0.03462,1.818883 -0.09591,0.416177 -0.408511,0.823747 -0.765827,0.998598 -0.22456,0.109855 -0.626096,0.141214 -0.854365,0.06672 z M 28.179653,24.629863 c 0.597951,-0.113417 1.040987,-0.570994 1.13724,-1.174485 0.046,-0.287822 0.04551,-4.512706 0,-4.798451 -0.04699,-0.292323 -0.159912,-0.522917 -0.359393,-0.733825 -0.195871,-0.2071 -0.366864,-0.315076 -0.615709,-0.388775 -0.161544,-0.04798 -1.257434,-0.05253 -12.341128,-0.05253 -13.4257403,0 -12.3277723,-0.01731 -12.6702503,0.200075 -0.363005,0.230446 -0.592659,0.591769 -0.648305,1.020015 -0.04105,0.315422 -0.03957,4.446328 0,4.737217 0.08354,0.589888 0.538399,1.076055 1.112411,1.18878 0.211699,0.04155 24.1649773,0.04353 24.3840463,0 z M 15.877996,8.7178931 c -0.388527,-0.109362 -0.703405,-0.368001 -0.875189,-0.718788 l -0.09596,-0.195822 -0.0094,-1.8035 c -0.0049,-0.99192 -0.01978,-1.802857 -0.03265,-1.802016 -0.01286,0 -0.478796,0.382988 -1.035348,0.84927 -0.687923,0.576238 -1.079666,0.88152 -1.223453,0.95329 -0.198295,0.09897 -0.232919,0.105553 -0.556601,0.105553 -0.333377,0 -0.353607,-0.0049 -0.594292,-0.123162 -0.727543,-0.359592 -0.960658,-1.248382 -0.505357,-1.926661 0.128008,-0.190777 4.338499,-3.71111803 4.603321,-3.84882202 0.360483,-0.187462 0.812718,-0.191815 1.180422,-0.01138 0.208484,0.102288 4.640715,3.78877402 4.745675,3.94715302 0.04204,0.06366 0.113516,0.207 0.158625,0.318637 0.07261,0.179845 0.08043,0.238557 0.06826,0.515597 -0.01682,0.385955 -0.116335,0.619072 -0.374381,0.877265 -0.404454,0.404702 -1.025505,0.504765 -1.525471,0.24573 -0.09789,-0.05075 -0.636829,-0.474147 -1.197733,-0.940924 -0.560855,-0.466777 -1.031985,-0.853623 -1.046923,-0.859608 -0.01484,-0.0059 -0.0272,0.73798 -0.0272,1.653183 0,1.576121 -0.0049,1.675293 -0.06583,1.8771 -0.114803,0.37176 -0.425724,0.705879 -0.782892,0.841357 -0.234155,0.08883 -0.585932,0.109114 -0.80787,0.04649 z"
       id="path30" />
  </g>
</svg>
