<?xml version="1.0" encoding="UTF-8" standalone="no"?>
<svg
   id="svg8"
   version="1.1"
   viewBox="0 0 32 32"
   height="32"
   width="32"
   xml:space="preserve"
   xmlns="http://www.w3.org/2000/svg"
   xmlns:svg="http://www.w3.org/2000/svg"
   xmlns:rdf="http://www.w3.org/1999/02/22-rdf-syntax-ns#"
   xmlns:cc="http://creativecommons.org/ns#"
   xmlns:dc="http://purl.org/dc/elements/1.1/"><defs
     id="defs2" /><metadata
     id="metadata5"><rdf:RDF><cc:Work
         rdf:about=""><dc:format>image/svg+xml</dc:format><dc:type
           rdf:resource="http://purl.org/dc/dcmitype/StillImage" /></cc:Work></rdf:RDF></metadata><g
     id="layer1"><path
       style="fill:#7137c8;fill-opacity:1;stroke-width:0.147661"
       d="M 3.840024,26.617475 C 2.6838077,26.532851 1.8020341,26.403359 0.98802293,26.198661 L 0.48012785,26.070946 0.46979465,24.71486 c -0.005552,-0.745851 0.00132,-1.356091 0.014343,-1.356091 0.0134177,0 0.24666959,0.07111 0.51816035,0.158022 2.8609061,0.915875 5.3904724,0.911803 6.3077752,-0.01018 C 7.5597225,23.255705 7.6803614,23.009293 7.7240985,22.660968 7.7888273,22.145483 7.6728799,21.783963 7.3247479,21.415874 6.9342731,21.003007 6.3829664,20.704164 5.2839233,20.309638 3.8382627,19.790677 2.8858488,19.367343 2.3172657,18.990998 1.9750298,18.76446 1.4247102,18.222406 1.2056718,17.896067 0.81231749,17.31004 0.65897179,16.804221 0.62764997,15.989482 0.58836852,14.967993 0.78832142,14.199157 1.281747,13.474366 c 0.9236938,-1.356837 3.0528053,-2.096059 5.5274439,-1.91912 0.9278117,0.06633 2.1570927,0.245124 2.7110136,0.394275 l 0.1605943,0.04324 v 1.252873 c 0,1.108939 -0.00694,1.250232 -0.059809,1.229914 -0.4917722,-0.188711 -1.4613592,-0.411317 -2.2428703,-0.514946 -0.5905558,-0.0783 -1.6744615,-0.07886 -2.112071,-9.9e-4 -0.5984537,0.10637 -0.9915736,0.275479 -1.2906015,0.555193 -0.2415462,0.225923 -0.3574287,0.493446 -0.3807894,0.87895 -0.022887,0.377705 0.054797,0.626111 0.2734232,0.874483 0.4093167,0.465011 0.8823351,0.707993 2.6677069,1.370381 1.2642596,0.46905 1.9810079,0.80411 2.5158957,1.176106 0.9992066,0.694908 1.5543216,1.580412 1.6852986,2.688333 0.07477,0.632591 -0.0167,1.487817 -0.220089,2.057439 -0.5918398,1.657614 -1.9520636,2.624237 -4.1764453,2.967916 -0.4887895,0.07552 -1.9665677,0.128193 -2.5004052,0.08913 z m 8.895327,-7.468364 c -0.220575,-3.969863 -0.400338,-7.248704 -0.399465,-7.286306 0.0013,-0.06362 0.0859,-0.06837 1.212709,-0.06837 h 1.211132 l 1.19e-4,0.224643 c 4e-5,0.123551 0.07845,2.343146 0.174209,4.932423 0.09577,2.589273 0.184148,5.041811 0.196389,5.450078 0.01218,0.408269 0.03247,0.856582 0.04493,0.996252 l 0.02266,0.253948 0.38101,-1.308803 c 0.30439,-1.045638 0.819667,-2.743354 1.099724,-3.623391 l 0.04035,-0.126743 0.16008,0.204882 c 0.263324,0.337017 0.689667,0.724981 1.089461,0.991413 0.646592,0.43089 1.345074,0.682281 2.126158,0.765224 l 0.439455,0.04667 0.236358,0.783069 c 0.129998,0.43069 0.329508,1.117109 0.443353,1.525377 l 0.206992,0.742307 0.0292,-1.191597 c 0.01605,-0.655377 0.03956,-1.369342 0.05224,-1.586588 l 0.02301,-0.394994 0.221259,-0.04906 c 0.519811,-0.115238 1.224508,-0.463961 1.72471,-0.853458 0.139298,-0.108467 0.258732,-0.19171 0.265452,-0.184998 0.01172,0.01157 -0.313914,5.919809 -0.365549,6.634112 l -0.02474,0.341854 h -1.61419 -1.614175 l -0.04073,-0.126975 c -0.878125,-2.737735 -1.451995,-4.565546 -1.649775,-5.254628 -0.137184,-0.478045 -0.259336,-0.86922 -0.271415,-0.86928 -0.01218,-7.8e-5 -0.131401,0.408651 -0.265153,0.908242 -0.133745,0.49959 -0.525735,1.796182 -0.871055,2.881314 -0.345335,1.08513 -0.661861,2.082849 -0.703385,2.217145 l -0.07548,0.244182 h -1.552404 -1.55239 z m 7.274528,-0.278965 c -0.397296,-0.102313 -0.776358,-0.410448 -0.933026,-0.758443 -0.05686,-0.126312 -0.545062,-2.262261 -1.292094,-5.653101 -0.946315,-4.2954765 -1.20078,-5.5088799 -1.20109,-5.7276284 0,-0.2285002 0.02074,-0.3227479 0.119278,-0.5333362 0.409776,-0.875674 1.50489,-1.1034185 2.209453,-0.4594835 0.118261,0.1080819 0.250186,0.2785837 0.307712,0.3976973 0.07233,0.1497384 0.346784,1.3293585 0.973884,4.1858688 l 0.873179,3.977369 0.07921,-0.109177 c 0.287291,-0.396016 1.412766,-1.836294 1.765023,-2.258733 0.574788,-0.689287 1.569728,-1.700426 2.162457,-2.19765 1.230561,-1.0322924 2.660378,-1.7944496 4.174881,-2.2253811 0.408993,-0.1163792 0.560935,-0.141148 0.884503,-0.1442633 0.358345,-0.00339 0.409377,0.00571 0.616412,0.1105648 0.265673,0.1345471 0.549329,0.4228824 0.658261,0.6691387 0.304828,0.6891187 0.02981,1.5012885 -0.618938,1.8279229 -0.102792,0.051758 -0.380301,0.141965 -0.616663,0.200471 -1.489487,0.368656 -2.781034,1.141317 -4.083141,2.44272 -0.689811,0.68944 -1.335461,1.468677 -2.586343,3.121507 -1.18625,1.567422 -2.036881,2.635137 -2.244832,2.817721 -0.313237,0.275021 -0.865148,0.414853 -1.248123,0.316224 z"
       id="path62" /></g></svg>
