<?xml version="1.0" encoding="UTF-8" standalone="no"?>
<svg
   id="svg8"
   version="1.1"
   viewBox="0 0 32 32"
   height="32"
   width="32"
   sodipodi:docname="verify-optimization.svg"
   inkscape:version="1.4 (86a8ad7, 2024-10-11)"
   xmlns:inkscape="http://www.inkscape.org/namespaces/inkscape"
   xmlns:sodipodi="http://sodipodi.sourceforge.net/DTD/sodipodi-0.dtd"
   xmlns="http://www.w3.org/2000/svg"
   xmlns:svg="http://www.w3.org/2000/svg"
   xmlns:rdf="http://www.w3.org/1999/02/22-rdf-syntax-ns#"
   xmlns:cc="http://creativecommons.org/ns#"
   xmlns:dc="http://purl.org/dc/elements/1.1/">
  <sodipodi:namedview
     id="namedview1"
     pagecolor="#ffffff"
     bordercolor="#000000"
     borderopacity="0.25"
     inkscape:showpageshadow="2"
     inkscape:pageopacity="0.0"
     inkscape:pagecheckerboard="0"
     inkscape:deskcolor="#d1d1d1"
     inkscape:zoom="10.170184"
     inkscape:cx="-8.2594374"
     inkscape:cy="34.168506"
     inkscape:window-width="3840"
     inkscape:window-height="2126"
     inkscape:window-x="214"
     inkscape:window-y="-11"
     inkscape:window-maximized="1"
     inkscape:current-layer="svg8" />
  <defs
     id="defs2" />
  <metadata
     id="metadata5">
    <rdf:RDF>
      <cc:Work
         rdf:about="">
        <dc:format>image/svg+xml</dc:format>
        <dc:type
           rdf:resource="http://purl.org/dc/dcmitype/StillImage" />
      </cc:Work>
    </rdf:RDF>
  </metadata>
  <path
     style="fill:#7137c8;fill-opacity:1;stroke-width:0.202594"
     d="m 14.055855,31.826785 c -0.153189,-0.07632 -0.35029,-0.225748 -0.43778,-0.332041 -0.317882,-0.385573 -0.323081,-0.435789 -0.323081,-3.121864 v -2.44794 l -1.648255,-0.03429 c -0.90664,-0.0188 -3.5780046,-0.06083 -5.9365746,-0.09291 -2.35857,-0.03208 -4.415405,-0.08296 -4.570807,-0.111934 -0.51597899,-0.09733 -0.98373299,-0.575263 -1.08294699,-1.105842 -0.03318,-0.17697 -0.0542,-2.976748 -0.0564099959981,-7.460176 V 9.9429843 L 0.11458841,9.6992079 c 0.130737,-0.2782856 0.437116,-0.5764801 0.732878,-0.7133003 0.18272199,-0.084061 0.47903599,-0.095121 3.08337299,-0.1117123 1.584657,-0.011062 2.881185,-0.011062 2.881185,0 0,0.011059 0.132727,0.6188423 0.294765,1.3545957 0.162149,0.735754 0.294877,1.356919 0.294877,1.380257 0,0.02323 -0.693502,0.04314 -1.541078,0.04314 -0.847687,1.1e-4 -1.887829,0.01548 -2.311562,0.03539 l -0.770373,0.03539 0.02212,5.590487 c 0.01217,3.074635 0.03318,5.600663 0.04646,5.613272 0.01327,0.01216 2.666166,0.06194 5.894322,0.110607 3.2282676,0.04867 5.9936476,0.100651 6.1451786,0.1168 0.624704,0.06526 1.148646,0.597385 1.230163,1.247971 0.02101,0.166352 0.02101,1.309579 -1.1e-4,2.540407 l -0.03761,2.237898 h 5.83714 5.83725 l 0.03539,-2.420952 c 0.01991,-1.331479 0.03539,-4.961247 0.03539,-8.066189 v -5.645348 l 0.495848,-0.393758 c 0.82822,-0.657666 2.28015,-1.688296 2.30758,-1.63808 0.01106,0.01106 0,4.494267 -0.01659,9.963088 l -0.02655,9.9434 -0.125759,0.252956 c -0.06968,0.139254 -0.219443,0.337682 -0.33381,0.441098 -0.418756,0.378274 0.212585,0.351176 -8.193386,0.351176 H 14.337115 Z M 14.721816,20.274063 C 14.144562,20.13857 13.559786,19.66252 13.315678,19.129287 13.229408,18.939929 12.583796,16.109402 11.395441,10.70418 10.411155,6.2272777 9.5893504,2.4526154 9.5692204,2.3160164 c -0.02101,-0.140139 -0.01106,-0.385021 0.02765,-0.562765 0.348742,-1.71019604 2.4594416,-2.31543404 3.6104116,-1.03527604 0.12952,0.14401 0.287355,0.37230104 0.350844,0.50746204 0.06858,0.144673 0.643286,2.649907 1.400497,6.0989448 0.706775,3.2193078 1.303938,5.8978618 1.326944,5.9523908 0.03429,0.08074 0.16403,-0.06194 0.706443,-0.777231 2.645925,-3.4884132 4.429563,-5.3641863 6.515377,-6.8517309 1.748908,-1.2474184 3.915575,-2.2085876 5.871981,-2.6050007 0.780327,-0.158056 1.390764,0 1.927426,0.4957376 0.912834,0.8451431 0.925885,2.2374558 0.02876,3.0643489 -0.335027,0.3088129 -0.597274,0.425392 -1.475489,0.656117 -2.197858,0.577365 -3.932608,1.5995887 -5.812031,3.4247041 -1.22762,1.192226 -2.056172,2.187241 -4.375587,5.254576 -2.202173,2.912376 -2.981063,3.85087 -3.399044,4.095863 -0.446518,0.261695 -1.056844,0.356042 -1.551475,0.239906 z"
     id="path27-1" />
</svg>
